<?xml version="1.0" standalone="no"?>
<!DOCTYPE svg PUBLIC "-//W3C//DTD SVG 1.1//EN" "http://www.w3.org/Graphics/SVG/1.1/DTD/svg11.dtd" >
<svg xmlns="http://www.w3.org/2000/svg">
<metadata></metadata>
<defs>
<font id="agiporegular" horiz-adv-x="1105" >
<font-face units-per-em="2048" ascent="1479" descent="-569" />
<missing-glyph horiz-adv-x="532" />
<glyph unicode="&#xfb01;" horiz-adv-x="1110" d="M51 879v149h170v150q0 144 75.5 229.5t211.5 85.5q47 0 74 -8v-150q-86 14 -128 -29.5t-42 -119.5v-158h559v-1028h-187v879h-372v-879h-191v879h-170zM750 1354q0 -55 36 -89t91 -34q54 0 89 34t35 89t-35 90t-89 35q-55 0 -91 -35t-36 -90z" />
<glyph unicode="&#xfb02;" horiz-adv-x="1099" d="M51 879v149h170v150q0 150 81 232.5t230 82.5q37 0 137 -6.5t130 -7.5h168v-1479h-189v1063l13 268q-98 10 -195 10q-99 0 -141.5 -40t-42.5 -127v-146h209v-149h-209v-879h-191v879h-170z" />
<glyph unicode="&#xfb03;" horiz-adv-x="1669" d="M51 879v149h170v150q0 144 75.5 229.5t211.5 85.5q47 0 74 -8v-150q-86 14 -128 -29.5t-42 -119.5v-158h368v150q0 146 72.5 230.5t214.5 84.5q45 0 72 -8v-152q-86 14 -127 -29.5t-41 -119.5v-156h559v-1028h-187v879h-372v-879h-191v879h-368v-879h-191v879h-170z M1309 1354q0 -55 36 -89t91 -34t90 34t35 89t-35.5 90t-89.5 35q-55 0 -91 -35t-36 -90z" />
<glyph unicode="&#xfb04;" horiz-adv-x="1658" d="M51 879v149h170v150q0 144 75.5 229.5t211.5 85.5q47 0 74 -8v-150q-86 14 -128 -29.5t-42 -119.5v-158h368v150q0 150 81.5 232.5t230.5 82.5q14 0 266 -14h168v-1479h-189v1063l13 268q-98 10 -195 10q-99 0 -141.5 -40t-42.5 -127v-146h209v-149h-209v-879h-191v879 h-368v-879h-191v879h-170z" />
<glyph horiz-adv-x="0" />
<glyph horiz-adv-x="0" />
<glyph horiz-adv-x="682" />
<glyph unicode="&#xd;" horiz-adv-x="0" />
<glyph unicode=" "  horiz-adv-x="532" />
<glyph unicode="&#x09;" horiz-adv-x="532" />
<glyph unicode="&#xa0;" horiz-adv-x="532" />
<glyph unicode="!" horiz-adv-x="763" d="M233 145q0 62 43.5 105t104.5 43t104 -43t43 -105t-43 -103.5t-104 -41.5t-104.5 41.5t-43.5 103.5zM272 1479h228l-43 -1073h-150z" />
<glyph unicode="&#x22;" horiz-adv-x="819" d="M150 1417h176l-15 -522h-131zM492 1417l14 -522h131l31 522h-176z" />
<glyph unicode="#" d="M51 403v142h191l47 305h-170v141h192l62 426h145l-63 -426h288l64 426h145l-63 -426h166v-141h-189l-45 -305h166v-142h-186l-62 -403h-147l63 403h-288l-62 -403h-145l63 403h-172zM387 545h289l47 305h-291z" />
<glyph unicode="$" horiz-adv-x="1126" d="M74 432h196q0 -33 3.5 -61t17 -63.5t37 -62t66.5 -48.5t102 -31v471q-180 46 -289 146.5t-109 256.5q0 160 110 261t288 116v133h125v-133q171 -16 278 -113.5t121 -275.5h-193q-13 194 -206 229v-462q212 -54 322 -151t110 -257q0 -166 -117 -269t-315 -118v-268h-125 v268q-64 6 -120.5 21.5t-112 48.5t-96 79.5t-66 119t-27.5 163.5zM287 1049q0 -159 209 -222v430q-97 -10 -153 -68t-56 -140zM621 164q66 6 114.5 27.5t74.5 51.5t38 61t12 63q0 91 -57.5 148t-181.5 91v-442z" />
<glyph unicode="%" horiz-adv-x="1904" d="M176 1036q0 102 36.5 188t110 139.5t169.5 53.5t169 -54t109.5 -139.5t36.5 -187.5q0 -162 -88 -270.5t-227 -108.5t-227.5 108.5t-88.5 270.5zM332 1034q0 -40 7 -79.5t23.5 -81t50 -67.5t79.5 -26t79.5 26t49.5 67.5t23 81t7 79.5q0 38 -7 79t-23.5 85t-50 72t-78.5 28 t-78.5 -28t-50 -72t-24 -85t-7.5 -79zM387 -68l971 1547h153l-970 -1547h-154zM1098 379q0 102 36.5 187.5t109.5 139.5t169 54t169.5 -53.5t110 -139.5t36.5 -188q0 -162 -88.5 -270.5t-227.5 -108.5t-227 108.5t-88 270.5zM1253 377q0 -40 7 -79.5t23.5 -81t50 -67.5 t79.5 -26t79.5 26t50 67.5t23.5 81t7 79.5q0 38 -7.5 79t-24 85t-50 72t-78.5 28t-78.5 -28t-50 -72t-24 -85t-7.5 -79z" />
<glyph unicode="&#x26;" horiz-adv-x="1617" d="M182 406q0 143 83.5 259t207.5 177q-72 61 -124 147t-52 182q0 144 107 239t284 95q118 0 208 -52t136.5 -136.5t50.5 -188.5h-194q0 100 -58 165t-149 65q-87 0 -143 -49t-56 -135q0 -64 32.5 -118t105.5 -130l460 -484q36 97 45.5 206t-6.5 192h193q22 -282 -109 -527 l301 -313h-241l-160 166q-182 -205 -442 -205q-107 0 -198 36t-152 96.5t-95.5 141.5t-34.5 171zM373 414q0 -134 87 -212.5t214 -78.5q197 0 321 158l-413 434q-98 -40 -153.5 -124.5t-55.5 -176.5z" />
<glyph unicode="'" horiz-adv-x="573" d="M197 1417h180l-21 -522h-139z" />
<glyph unicode="(" horiz-adv-x="675" d="M154 651q0 219 75.5 447t200.5 432h152q-120 -219 -184 -430.5t-64 -448.5q0 -242 64.5 -455.5t183.5 -422.5h-152q-125 204 -200.5 431.5t-75.5 446.5z" />
<glyph unicode=")" horiz-adv-x="675" d="M94 -227q119 209 183.5 422.5t64.5 455.5q0 237 -64 448.5t-184 430.5h152q125 -204 200.5 -432t75.5 -447t-75.5 -446.5t-200.5 -431.5h-152z" />
<glyph unicode="*" horiz-adv-x="1116" d="M154 1204l75 137l291 -217l-39 355h154l-39 -357l287 211l82 -133l-328 -139l324 -150l-76 -139l-289 219l29 -344h-150l45 350l-291 -211l-73 136l321 139z" />
<glyph unicode="+" horiz-adv-x="1167" d="M61 434v160h441v434h164v-434h440v-160h-440v-434h-164v434h-441z" />
<glyph unicode="," horiz-adv-x="573" d="M104 -201q137 108 191 201q6 10 1.5 20.5t-17.5 10.5q-61 0 -102.5 39.5t-41.5 101.5q0 61 43 101t105 40t104 -38.5t45 -102.5q3 -50 -8 -96q-40 -144 -170 -277h-150z" />
<glyph unicode="-" horiz-adv-x="716" d="M92 461v155h533v-155h-533z" />
<glyph unicode="." horiz-adv-x="573" d="M139 145q0 62 43.5 105t104.5 43t104 -43t43 -105t-43 -103.5t-104 -41.5t-104.5 41.5t-43.5 103.5z" />
<glyph unicode="/" horiz-adv-x="598" d="M-41 -197l520 1676h160l-522 -1676h-158z" />
<glyph unicode="0" d="M84 694q0 53 4.5 111.5t18 134.5t35 145t58 137t84 117.5t117 80t152.5 30.5q88 0 161.5 -34t123.5 -92.5t87 -131t57.5 -156t30 -159.5t9.5 -150q0 -71 -7 -142t-23 -146.5t-40.5 -142.5t-62.5 -127t-85.5 -103.5t-113 -69t-141.5 -25.5q-98 0 -178.5 45.5t-132.5 118.5 t-87.5 169.5t-51 194t-15.5 195.5zM281 705q0 -162 28.5 -287t90.5 -202t151 -77q75 0 131 52t85.5 139t43.5 181.5t14 197.5q0 171 -31.5 300.5t-93 203t-145.5 73.5q-55 0 -99 -25t-73 -70t-50 -100t-32 -123t-15.5 -131t-4.5 -132z" />
<glyph unicode="1" horiz-adv-x="921" d="M41 580v288q74 88 204.5 277t176.5 274h254v-1419h-193v1225h-12q-51 -91 -202 -325.5t-228 -319.5z" />
<glyph unicode="2" d="M123 973q-11 132 39 240.5t155.5 172.5t245.5 64q187 0 303.5 -120t116.5 -294q0 -234 -233 -409q-101 -74 -228 -148q-35 -21 -59 -36.5t-58.5 -46t-54.5 -61t-34 -75t-11 -94.5h658v-166h-838q-6 91 0 152q9 93 35.5 167.5t69.5 130.5t90 96.5t112 80.5q85 53 203 143 q71 53 110 118t39 156q0 99 -61.5 168.5t-163.5 69.5q-69 0 -120 -28.5t-77 -74.5t-36 -98.5t-4 -107.5h-199z" />
<glyph unicode="3" d="M78 403h201q-1 -121 68 -195.5t183 -74.5q106 0 172 64t66 168q0 74 -26.5 129t-72.5 85t-97.5 45t-112.5 17l-92 4v156l73 4q47 3 88.5 11t86 26.5t76.5 46t52.5 72.5t20.5 102q0 108 -66 165.5t-157 57.5q-94 0 -162.5 -58t-69.5 -165h-196q5 89 38 159.5t80 111.5 t105.5 68.5t108 37.5t94.5 10q102 0 184.5 -32t134.5 -86t79.5 -122t27.5 -143q0 -102 -66.5 -192t-200.5 -140v-12q71 -21 125 -60.5t85 -88t46 -99.5t15 -102q0 -167 -122 -287.5t-321 -120.5q-185 0 -315 119.5t-133 318.5z" />
<glyph unicode="4" d="M66 307v225q252 403 534 902h262v-963h162v-164h-162v-307h-196v307h-600zM225 469h449v764h-12q-93 -166 -202 -354t-172 -293l-63 -105v-12z" />
<glyph unicode="5" d="M129 397h197q-4 -113 58 -186.5t157 -73.5q124 0 192 100t68 246q0 154 -58.5 246t-160.5 92q-82 0 -148 -48t-96 -124h-156v768h766v-166h-594l-20 -393h12q41 49 108 86t160 37q95 0 169.5 -41t119.5 -110.5t68.5 -154.5t23.5 -179q0 -232 -124.5 -379.5t-333.5 -147.5 q-112 0 -204.5 53.5t-147.5 152t-56 222.5z" />
<glyph unicode="6" horiz-adv-x="1067" d="M82 653q0 83 10 167t31.5 176.5t61 171.5t93 143.5t133 101.5t175.5 37q79 0 143 -23.5t104 -61.5t65.5 -87t34.5 -98t5 -97h-193q5 94 -35 152.5t-128 58.5q-134 0 -224.5 -151t-93.5 -420h12q40 70 122 125t196 55q74 0 141.5 -29.5t122 -84t87 -143t32.5 -197.5 q0 -212 -119 -346t-303 -134q-146 0 -255 95t-163.5 248.5t-54.5 340.5zM305 502q0 -96 26.5 -177.5t85 -136.5t138.5 -55q95 0 162 83t67 216q0 139 -59 223.5t-160 85.5t-179 -72t-81 -167z" />
<glyph unicode="7" horiz-adv-x="1034" d="M41 1247v170h885v-196q-106 -231 -241.5 -536.5t-218.5 -494.5l-83 -190h-211q340 730 582 1235v12h-713z" />
<glyph unicode="8" d="M90 375q0 56 15.5 107t40 88.5t56.5 69t62.5 51t61.5 32.5v12q-104 50 -158.5 137.5t-54.5 194.5q0 66 28.5 132t81 122t139 90.5t191.5 34.5t191.5 -34.5t139 -90.5t81 -122t28.5 -132q0 -107 -54.5 -194.5t-158.5 -137.5v-12q31 -13 61.5 -32.5t62.5 -51t56.5 -69 t40 -88.5t15.5 -107q0 -77 -33 -149t-91.5 -128t-146.5 -89.5t-192 -33.5t-192 33.5t-146.5 89.5t-91.5 128t-33 149zM289 385q0 -99 74 -171.5t190 -72.5t190 72.5t74 171.5q0 113 -75.5 182.5t-188.5 69.5t-188.5 -69.5t-75.5 -182.5zM303 1055q0 -105 71.5 -175.5 t178.5 -70.5t178.5 70.5t71.5 175.5q0 102 -71 168.5t-179 66.5t-179 -66.5t-71 -168.5z" />
<glyph unicode="9" d="M92 983q0 204 123.5 335.5t306.5 131.5q112 0 201.5 -54.5t146 -149.5t86 -220t29.5 -270q0 -73 -5 -143t-19.5 -150.5t-37 -149t-61 -133.5t-87.5 -110.5t-120.5 -73t-156.5 -27.5q-99 0 -179.5 40.5t-128.5 104t-72 136.5t-20 143h197q-6 -120 51.5 -192t155.5 -72 q66 0 120.5 35t95.5 104.5t62 182.5t17 258h-13q-107 -170 -307 -170q-74 0 -142 29t-122.5 82.5t-87.5 140t-33 192.5zM283 991q0 -135 60.5 -208.5t164.5 -75.5q101 -1 176 70t78 165q0 149 -61.5 245.5t-184.5 96.5q-98 0 -165.5 -80t-67.5 -213z" />
<glyph unicode=":" horiz-adv-x="573" d="M139 145q0 62 43.5 105t104.5 43t104 -43t43 -105t-43 -103.5t-104 -41.5t-104.5 41.5t-43.5 103.5zM139 881q0 62 43.5 104.5t104.5 42.5t104 -42.5t43 -104.5t-43 -104t-104 -42t-104.5 42t-43.5 104z" />
<glyph unicode=";" horiz-adv-x="573" d="M104 -201q137 108 191 201q6 10 1.5 20.5t-17.5 10.5q-61 0 -102.5 39.5t-41.5 101.5q0 61 43 101t105 40t104 -38.5t45 -102.5q3 -50 -8 -96q-40 -144 -170 -277h-150zM139 881q0 62 43.5 104.5t104.5 42.5t104 -42.5t43 -104.5t-43 -104t-104 -42t-104.5 42t-43.5 104z " />
<glyph unicode="&#x3c;" horiz-adv-x="1167" d="M61 432v168l1045 414v-172l-850 -320v-12l850 -317v-175z" />
<glyph unicode="=" horiz-adv-x="1167" d="M61 231v158h1045v-158h-1045zM61 645v158h1045v-158h-1045z" />
<glyph unicode="&#x3e;" horiz-adv-x="1167" d="M61 18v175l850 317v12l-850 320v172l1045 -414v-168z" />
<glyph unicode="?" horiz-adv-x="1024" d="M104 1063q-4 91 18.5 165t63 123t96.5 83t115.5 48.5t122.5 14.5q174 0 293 -108t119 -281q0 -119 -60.5 -212t-177.5 -187q-72 -58 -96.5 -121.5t-19.5 -145.5l2 -36h-170l-2 40q-7 132 35 215t143 177q78 72 113.5 131.5t35.5 132.5q0 109 -62 171t-155 62 q-103 0 -169 -69t-52 -203h-193zM350 145q0 62 43.5 105t104.5 43t104 -43t43 -105t-43 -103.5t-104 -41.5t-104.5 41.5t-43.5 103.5z" />
<glyph unicode="@" horiz-adv-x="1761" d="M174 389q0 179 71 330.5t188 251.5t266.5 155.5t308.5 55.5q187 0 301 -95t114 -272v-541l4 -147h-180l4 127h-12q-147 -158 -326 -158q-144 0 -224.5 85.5t-80.5 221.5q0 138 94 224.5t250 89.5q151 3 299 -37v137q0 112 -63.5 171t-179.5 59q-133 0 -254.5 -47 t-213 -130.5t-146 -208t-54.5 -270.5q0 -145 54 -263t146 -193.5t211.5 -115.5t254.5 -40q133 0 245 35.5t187 88t153 132.5l99 -125q-291 -277 -686 -277q-131 0 -253.5 31.5t-227 95.5t-182.5 153t-122.5 211.5t-44.5 264.5zM791 414q0 -80 51 -127.5t145 -46.5 q78 1 147 46t115 101v176q-157 27 -262 25q-94 0 -145 -49.5t-51 -124.5z" />
<glyph unicode="A" horiz-adv-x="1300" d="M41 0l487 1479h226l506 -1479h-207l-125 375h-561l-119 -375h-207zM418 541h454l-225 704h-12z" />
<glyph unicode="B" horiz-adv-x="1155" d="M143 0v1479h369q217 0 354.5 -108.5t137.5 -289.5q0 -70 -23.5 -129t-60.5 -97t-73 -62t-71 -35v-13q28 -5 62 -19.5t72.5 -42.5t70 -65t52 -92t20.5 -118q0 -129 -65.5 -222t-179 -139.5t-263.5 -46.5h-402zM340 827l170 2q33 1 65 5.5t75 19.5t74.5 39.5t54 70 t22.5 105.5q0 52 -18.5 94.5t-48 69t-68 44.5t-75.5 25t-73 7l-178 2v-484zM342 166l215 2q126 0 207.5 64.5t81.5 179.5q0 102 -81.5 173t-205.5 72l-217 2v-493z" />
<glyph unicode="C" horiz-adv-x="1433" d="M82 731q0 111 26 218.5t82.5 207.5t137 175.5t198 121t256.5 45.5q227 0 382.5 -129.5t174.5 -341.5h-211q-3 56 -25.5 108.5t-63 96t-107 70t-148.5 26.5q-153 0 -266.5 -78.5t-171 -212.5t-57.5 -305q0 -115 31 -217.5t90.5 -183.5t156 -128.5t217.5 -47.5 q165 0 264 91t105 214h209q-16 -143 -97.5 -254.5t-207.5 -171.5t-275 -60q-122 0 -227 33.5t-180 92t-132.5 133t-92 160t-51.5 170.5t-17 167z" />
<glyph unicode="D" horiz-adv-x="1394" d="M143 0v1479h353q170 0 318 -50t259.5 -143.5t175.5 -237.5t64 -321q0 -159 -57 -292.5t-162.5 -230t-263 -150.5t-349.5 -54h-338zM348 168l139 2q289 4 451 153.5t162 401.5q0 121 -38.5 225.5t-112 183.5t-187.5 125.5t-256 47.5l-158 2v-1141z" />
<glyph unicode="E" horiz-adv-x="1101" d="M143 0v1479h854v-174h-651v-461h623v-172h-621v-492h672v-180h-877z" />
<glyph unicode="F" horiz-adv-x="1030" d="M143 0v1479h826v-174h-617v-488h582v-172h-582v-645h-209z" />
<glyph unicode="G" horiz-adv-x="1501" d="M82 735q0 154 50 292.5t140.5 244t228.5 167.5t304 62q151 0 277.5 -60t203.5 -168.5t86 -244.5h-217q-5 133 -100.5 223t-249.5 90q-160 0 -278 -81.5t-176 -217t-58 -305.5q0 -281 122.5 -441.5t364.5 -160.5q193 0 315 109q119 106 119 279v9l-610 -59v203h807 l-4 -117q-5 -142 -58 -256t-140 -186t-197.5 -110t-235.5 -38q-167 0 -301 60.5t-219 165.5t-129.5 243t-44.5 297z" />
<glyph unicode="H" horiz-adv-x="1411" d="M143 0v1479h205v-643h715v643h205v-1479h-205v659h-715v-659h-205z" />
<glyph unicode="I" horiz-adv-x="491" d="M143 0v1479h205v-1479h-205z" />
<glyph unicode="J" horiz-adv-x="1019" d="M41 430h207v-10q0 -50 10 -94q10 -49 33 -89.5t64.5 -63.5t97.5 -23q108 0 163.5 74t55.5 210v1045h205v-1045q0 -214 -119 -335.5t-309 -121.5t-299 127.5t-109 325.5z" />
<glyph unicode="K" horiz-adv-x="1249" d="M143 0v1479h203v-697h12l564 697h252l-609 -717l664 -762h-258l-613 715h-12v-715h-203z" />
<glyph unicode="L" horiz-adv-x="993" d="M143 0v1479h203v-1297l606 2v-184h-809z" />
<glyph unicode="M" horiz-adv-x="1863" d="M102 0l203 1479h254l373 -1160h12l363 1160h252l202 -1479h-209l-143 1174h-14l-385 -1201h-150l-393 1201h-14l-142 -1174h-209z" />
<glyph unicode="N" horiz-adv-x="1536" d="M143 0v1479h203l846 -1160h12v1160h189v-1479h-205l-846 1165h-12v-1165h-187z" />
<glyph unicode="O" horiz-adv-x="1630" d="M82 750q0 150 52 288.5t144.5 245t232 170.5t302.5 64q164 0 303.5 -62.5t233 -168.5t146 -247.5t52.5 -298.5q0 -178 -60 -326t-161.5 -245.5t-234.5 -151t-281 -53.5t-280.5 56.5t-232 157t-158 249t-58.5 322.5zM295 745q0 -174 62.5 -311t181 -216t272.5 -79 q125 0 225.5 48.5t165 131.5t99 192t34.5 232q0 272 -147 437.5t-377 165.5q-154 0 -273 -82t-181 -218t-62 -301z" />
<glyph unicode="P" horiz-adv-x="1150" d="M143 0v1479h385q115 0 216 -29t178.5 -84t122.5 -142.5t45 -197.5q0 -116 -47.5 -206.5t-129 -146t-184.5 -84t-221 -28.5h-160v-561h-205zM346 733l162 2q45 0 90 6.5t96.5 26.5t90 51t64 84.5t25.5 122.5q0 66 -24.5 118t-61 82t-85 50t-90 27t-81.5 8l-186 2v-580z " />
<glyph unicode="Q" horiz-adv-x="1669" d="M82 737q0 178 60 326t161.5 245.5t234.5 151t281 53.5q149 0 282 -56.5t232 -157t157 -248.5t58 -322q0 -128 -41 -251.5t-116 -225.5q115 -72 206 -90l-79 -162q-34 4 -103 35t-147 88q-187 -154 -451 -154q-164 0 -303.5 61t-233 165.5t-146 244.5t-52.5 297zM295 739 q0 -273 147.5 -441.5t376.5 -168.5q96 0 178 30.5t136 82.5q-184 178 -406 217l86 162q221 -35 436 -250q92 146 92 362q0 173 -64 311.5t-184 218.5t-274 80q-125 0 -225.5 -48.5t-165 -131.5t-99 -192t-34.5 -232z" />
<glyph unicode="R" horiz-adv-x="1224" d="M143 0v1479h349q87 0 166.5 -16t149.5 -49t121.5 -81t81 -116.5t29.5 -149.5q0 -107 -55.5 -192t-143 -134.5t-196.5 -68.5l580 -672h-256l-547 647h-76v-647h-203zM342 819l154 2q50 1 95.5 9t89.5 26t76.5 45t52 68t19.5 92q0 67 -30 116.5t-80.5 76t-106 38.5 t-118.5 13l-152 2v-488z" />
<glyph unicode="S" horiz-adv-x="1220" d="M82 446h213q1 -37 8.5 -74t29.5 -80.5t56 -76t94 -54.5t138 -22q86 0 149.5 24t96.5 62t48 77t15 77q0 115 -79.5 170.5t-272.5 97.5q-101 22 -184 58.5t-149.5 89t-103.5 127t-37 163.5q0 134 67 233t177.5 148.5t249.5 49.5q210 0 349 -113.5t151 -317.5h-211 q-5 88 -48.5 148.5t-106 86.5t-138.5 26q-127 0 -206 -72t-79 -178q0 -48 18.5 -87t48 -65.5t78 -49t96 -36.5t114.5 -29q113 -26 195.5 -60t148 -84.5t98.5 -121.5t33 -162q0 -196 -144.5 -316t-390.5 -120q-74 0 -143.5 14.5t-139 49.5t-121 88.5t-84 138t-34.5 190.5z " />
<glyph unicode="T" horiz-adv-x="1157" d="M41 1305v174h1075v-174h-434v-1305h-203v1305h-438z" />
<glyph unicode="U" horiz-adv-x="1378" d="M143 551v928h205v-930q0 -207 91.5 -302t250.5 -95q69 0 124.5 17t91 43t61.5 64.5t39 72.5t20 77.5t8.5 68.5t1.5 56v928h199v-924q0 -158 -43.5 -274.5t-121 -183t-172 -97.5t-208.5 -31q-251 0 -399 147t-148 435z" />
<glyph unicode="V" horiz-adv-x="1277" d="M41 1479h225l389 -1243h13l362 1243h207l-459 -1479h-239z" />
<glyph unicode="W" horiz-adv-x="1966" d="M61 1479h224l245 -1198h13l321 1198h248l320 -1198h12l254 1198h207l-349 -1479h-243l-322 1227h-12l-332 -1227h-241z" />
<glyph unicode="X" horiz-adv-x="1265" d="M41 0l465 766l-447 713h250l320 -549h12l311 549h242l-438 -709l469 -770h-246l-342 594h-12l-336 -594h-248z" />
<glyph unicode="Y" horiz-adv-x="1202" d="M31 1479h241l334 -750h12l328 750h225l-434 -897q-26 -10 -26 -37v-545h-207v545q0 30 -29 37z" />
<glyph unicode="Z" horiz-adv-x="1110" d="M61 0v201l770 1085v12h-729v181h947v-211l-764 -1075v-13h751v-180h-975z" />
<glyph unicode="[" horiz-adv-x="675" d="M205 -264v1796h358v-115h-196v-1567h196v-114h-358z" />
<glyph unicode="\" horiz-adv-x="679" d="M0 1479h160l520 -1676h-158z" />
<glyph unicode="]" horiz-adv-x="675" d="M113 -150h196v1567h-196v115h358v-1796h-358v114z" />
<glyph unicode="^" horiz-adv-x="1167" d="M143 561l365 856h151l365 -856h-172l-262 656h-12l-263 -656h-172z" />
<glyph unicode="_" horiz-adv-x="1003" d="M0 -39h1004v-139h-1004v139z" />
<glyph unicode="`" horiz-adv-x="675" d="M102 1370l84 150l387 -248l-71 -119z" />
<glyph unicode="a" horiz-adv-x="1071" d="M92 287q0 142 99.5 234t261.5 95h12q147 0 299 -45v111q0 110 -58.5 169.5t-168.5 59.5q-107 0 -165 -53q-54 -49 -53 -117v-12h-206q31 144 141 236t283 92q119 0 208.5 -39t144 -125t54.5 -211v-512q0 -115 12 -170h-194q8 84 8 131h-10q-67 -72 -157.5 -115 t-188.5 -43q-149 0 -235.5 88t-86.5 226zM281 297q0 -84 50.5 -130t147.5 -46q81 0 158.5 48t122.5 103v183q-140 28 -247 28h-21q-98 -1 -154.5 -52t-56.5 -134z" />
<glyph unicode="b" horiz-adv-x="1150" d="M131 0q4 82 4 152v1327h193v-451l-2 -139h12q15 24 35 46t57 52.5t92 49t119 18.5q131 0 229.5 -72.5t148.5 -193.5t50 -271q0 -145 -51.5 -265t-155.5 -195.5t-244 -75.5q-187 0 -299 170h-12q0 -109 -2 -152h-174zM328 385q7 -88 82.5 -171t175.5 -83 q137 0 209.5 104.5t72.5 282.5q0 109 -28 195t-91 140t-153 54q-76 0 -139 -45t-95 -106.5t-34 -120.5v-250z" />
<glyph unicode="c" horiz-adv-x="1067" d="M82 510q0 245 140.5 395t350.5 150q166 0 286.5 -102.5t135.5 -254.5h-198q-2 31 -17 65t-41 66.5t-70.5 54t-99.5 21.5q-93 0 -158.5 -54t-95.5 -140.5t-30 -198.5q0 -108 32 -194t98 -138.5t156 -52.5q69 0 122 34t80.5 81t37.5 102h195q-28 -160 -141 -265.5 t-294 -105.5q-218 0 -353.5 152.5t-135.5 384.5z" />
<glyph unicode="d" horiz-adv-x="1148" d="M82 518q0 150 50 271t148.5 193.5t229.5 72.5q64 0 119 -18.5t92 -49t57 -52.5t35 -46h12q-2 69 -2 139v451h193v-1327q0 -111 4 -152h-174q-2 43 -2 152h-13q-112 -170 -305 -170q-105 0 -190.5 43.5t-140 118t-84 170.5t-29.5 204zM283 518q0 -178 72.5 -282.5 t209.5 -104.5q100 0 175.5 83t82.5 171v250q-2 59 -34 120.5t-95 106.5t-139 45q-90 0 -153 -54t-91 -140t-28 -195z" />
<glyph unicode="e" horiz-adv-x="1091" d="M82 522q0 145 56 265.5t164.5 194t248.5 73.5q109 0 194.5 -36t137 -94t83.5 -133q32 -76 40 -152q4 -39 4 -79q0 -37 -4 -74h-734q2 -165 80 -266.5t221 -101.5q94 0 160.5 54.5t85.5 143.5h189q-9 -65 -42.5 -126t-87.5 -111.5t-136 -80.5t-179 -30q-217 0 -349 151.5 t-132 401.5zM281 627l534 4v9q1 28 -5 58q-6 36 -25 75.5t-47 70t-75.5 51t-107.5 20.5q-107 0 -184 -76t-90 -212z" />
<glyph unicode="f" horiz-adv-x="651" d="M51 879v149h170v150q0 146 72.5 230.5t214.5 84.5q45 0 72 -8v-152q-21 3 -39 3q-57 0 -88 -32q-41 -44 -41 -120v-156h188v-149h-188v-879h-191v879h-170z" />
<glyph unicode="g" horiz-adv-x="1155" d="M82 524q0 225 121 371.5t317 146.5q65 0 119 -16.5t88.5 -43t54.5 -49t33 -44.5h12q1 8 8 58.5t13 80.5h184q-20 -95 -20 -258v-735q0 -216 -123 -331.5t-320 -115.5q-86 0 -157.5 22.5t-117.5 57t-79 80.5t-49 90t-21 88h195q8 -90 69 -147.5t162 -57.5 q125 0 188.5 76.5t63.5 220.5l2 162h-12q-42 -74 -119.5 -119t-167.5 -45q-106 0 -191 40t-140 109.5t-84 161t-29 197.5zM279 537q0 -173 75.5 -273t206.5 -100q101 0 174.5 75t83.5 164v252q-5 92 -79.5 171t-182.5 79q-139 0 -208.5 -102.5t-69.5 -265.5z" />
<glyph unicode="h" horiz-adv-x="1138" d="M133 0v1479h191v-451q0 -82 -2 -176h12q14 24 37 51.5t63.5 62.5t100.5 58t127 23q39 0 80 -8.5t90 -34t86.5 -65t62.5 -109.5t25 -160v-670h-197v674q0 107 -46.5 166t-133.5 59q-104 0 -187 -85.5t-114 -215.5v-598h-195z" />
<glyph unicode="i" horiz-adv-x="458" d="M104 1354q0 55 35.5 90t89.5 35q55 0 91 -35t36 -90t-36 -89t-91 -34t-90 34t-35 89zM133 0v1028h193v-1028h-193z" />
<glyph unicode="j" horiz-adv-x="477" d="M0 -250q78 0 112.5 37t34.5 139v1102h193v-1096q0 -42 -5 -82t-22 -88t-44.5 -82.5t-76.5 -58.5t-114 -24q-45 0 -78 8v145zM117 1354q0 55 35.5 90t89.5 35q55 0 91 -35t36 -90t-36 -89t-91 -34t-90 34t-35 89z" />
<glyph unicode="k" horiz-adv-x="1024" d="M133 0v1479h191v-908h12l426 459h246l-476 -481l492 -549h-244l-444 514h-12v-514h-191z" />
<glyph unicode="l" horiz-adv-x="458" d="M133 0v1479h172l21 -416v-1063h-193z" />
<glyph unicode="m" horiz-adv-x="1753" d="M123 1028h201l2 -182h12q11 20 23 39t41.5 52.5t62.5 57t86 42t111 18.5q213 0 284 -209h12q18 31 31.5 51.5t44 53.5t62 53t82 35.5t108.5 15.5q44 0 87.5 -9.5t91.5 -35t83.5 -65t58.5 -106.5t23 -153v-686h-194v707q0 97 -48.5 146.5t-125.5 49.5q-89 0 -165 -77.5 t-114 -209.5v-616h-195v702q0 97 -45 148t-118 51q-99 0 -184 -88t-111 -221v-592h-195v846q0 116 -12 182z" />
<glyph unicode="n" horiz-adv-x="1128" d="M123 1028h199v-176h12q14 24 37.5 51.5t64.5 63.5t102 59t128 23q41 0 83 -9t89.5 -35t83.5 -66.5t60 -110t24 -158.5v-670h-197v674q0 107 -46.5 166t-133.5 59q-104 0 -187 -85.5t-114 -215.5v-598h-195v852q0 102 -10 176z" />
<glyph unicode="o" horiz-adv-x="1183" d="M82 514q0 73 19 147.5t60.5 145.5t100 126t145.5 88.5t189 33.5q101 0 187 -34.5t143.5 -90t98 -127.5t59 -145.5t18.5 -145.5q0 -104 -33.5 -200.5t-95.5 -174.5t-160 -125t-217 -47t-217.5 45t-162.5 121t-99 175t-35 208zM283 514q0 -81 19 -152t55.5 -128t97.5 -90 t139 -33q61 0 115 24.5t97.5 72t69 127t25.5 181.5q0 187 -88 290t-219 103q-43 0 -84 -11t-83 -39.5t-73 -71.5t-51 -113.5t-20 -159.5z" />
<glyph unicode="p" horiz-adv-x="1148" d="M129 1028h180q2 -39 2 -154h13q114 173 305 173q137 0 238.5 -75.5t150.5 -195.5t49 -266q0 -150 -50 -271t-148.5 -193.5t-229.5 -72.5q-64 0 -119 18.5t-92 49t-57 52.5t-35 46h-12q2 -71 2 -139v-395h-193v1272q0 69 -4 151zM326 393q2 -59 34 -120.5t95 -106.5 t139 -45q90 0 153 54t91 140t28 195q0 179 -71.5 283t-208.5 104q-100 0 -176.5 -84t-83.5 -172v-248z" />
<glyph unicode="q" horiz-adv-x="1150" d="M82 510q0 145 50 265.5t152.5 196t239.5 75.5q187 0 301 -173h13q0 105 4 154h182q-8 -63 -8 -151v-1272h-193v395q0 65 2 139h-12q-15 -24 -35 -46t-57 -52.5t-92 -49t-119 -18.5q-131 0 -229.5 72.5t-148.5 193.5t-50 271zM283 510q0 -109 28 -195t91 -140t153 -54 q76 0 139 45t95 106.5t34 120.5v248q-7 88 -83.5 172t-176.5 84q-137 0 -208.5 -104t-71.5 -283z" />
<glyph unicode="r" horiz-adv-x="768" d="M121 1028h184l10 -268h13q29 110 111.5 197t187.5 87q69 0 131 -28v-176q-54 26 -115 26q-94 0 -165 -57.5t-108 -149t-42 -202.5v-457h-195v760q0 162 -12 268z" />
<glyph unicode="s" horiz-adv-x="948" d="M82 305h199q0 -72 52 -129t152 -57q86 0 139.5 41.5t53.5 109.5q0 63 -54 103t-167 69q-174 43 -270.5 118t-96.5 196q0 137 104.5 217t272.5 80q151 0 256.5 -82t112.5 -226h-195q-4 76 -55.5 121t-124.5 45t-126.5 -34.5t-53.5 -106.5q0 -62 57.5 -100t177.5 -66 q361 -83 361 -315q0 -144 -113.5 -230t-286.5 -86q-74 0 -141 20t-123.5 59t-91.5 104.5t-39 148.5z" />
<glyph unicode="t" horiz-adv-x="727" d="M41 881v147h168l35 307h151v-307h291v-147h-291v-580q0 -70 36 -108.5t106 -38.5q76 0 149 30v-151q-29 -21 -76 -36t-96 -15q-148 0 -228.5 83.5t-80.5 233.5v582h-164z" />
<glyph unicode="u" horiz-adv-x="1153" d="M133 373v655h197v-657q0 -106 49 -168t145 -62q104 0 186 84t107 217v586h199v-852q0 -102 14 -176h-199q-4 38 -4 94q0 38 2 84h-12q-12 -23 -34 -49.5t-62.5 -61.5t-103 -58t-134.5 -23q-45 0 -89.5 10t-92.5 37t-84.5 69t-60 112t-23.5 159z" />
<glyph unicode="v" horiz-adv-x="1038" d="M41 1028h207l282 -840h13l258 840h196l-344 -1028h-235z" />
<glyph unicode="w" horiz-adv-x="1691" d="M41 1028h199l217 -819h12l250 819h250l227 -819h12l240 819h203l-336 -1028h-228l-243 850h-13l-256 -850h-221z" />
<glyph unicode="x" horiz-adv-x="1034" d="M51 0l344 524l-319 504h225l209 -371h12l219 371h220l-326 -493l348 -535h-221l-240 397h-12l-236 -397h-223z" />
<glyph unicode="y" horiz-adv-x="1044" d="M41 1028h213l287 -815h12l250 815h201q-353 -1066 -416 -1233q-43 -114 -116.5 -161.5t-174.5 -47.5q-74 0 -135 21v164q55 -19 110 -19q51 0 82.5 19.5t53.5 64.5q44 95 61 164q7 33 -10 52.5t-49 17.5z" />
<glyph unicode="z" horiz-adv-x="931" d="M61 0v182l601 688v13h-584v145h792v-168l-610 -698v-12h610v-150h-809z" />
<glyph unicode="{" horiz-adv-x="675" d="M61 565v144q186 10 220 118q15 48 4 158q-2 10 -2 14l-15 127q-10 92 5 165.5t57.5 131t121 89.5t189.5 34v-129q-48 -4 -85 -15.5t-60 -26.5t-38 -38.5t-22 -44t-8 -52.5t0.5 -55t5.5 -59l15 -127q5 -47 6 -81t-3.5 -75t-20.5 -70.5t-43.5 -57t-74 -46t-110.5 -26.5v-12 q75 -10 127 -35t77 -59t38 -77.5t10.5 -90t-6.5 -95.5l-15 -129q-9 -51 -6 -100.5t17.5 -88.5t63.5 -66.5t132 -34.5v-129q-111 2 -189.5 34t-121 89t-57.5 130.5t-5 165.5l15 129q11 107 4 150q-18 101 -139 129q-38 9 -87 12z" />
<glyph unicode="|" horiz-adv-x="532" d="M182 -375v1905h168v-1905h-168z" />
<glyph unicode="}" horiz-adv-x="675" d="M35 -145q83 7 132 34.5t63.5 66.5t17.5 88.5t-6 100.5l-15 129q-4 49 -6.5 95.5t10.5 90t38 77.5t77 59t127 35v12q-64 8 -110.5 26.5t-74 46t-43.5 57t-20.5 70.5t-3.5 75t6 81l15 127q4 36 5.5 59t0.5 55t-8 52.5t-22 44t-38 38.5t-60 26.5t-85 15.5v129 q111 -2 189.5 -34t121 -89.5t57.5 -131t5 -165.5l-15 -127q-11 -107 -4 -148q17 -99 132 -129q41 -10 93 -13v-144q-90 -5 -143 -31.5t-67.5 -65t-18 -86t6.5 -95.5q0 -4 0.5 -7t0.5 -6l15 -129q10 -92 -5 -165.5t-57.5 -130.5t-121 -89t-189.5 -34v129z" />
<glyph unicode="~" horiz-adv-x="1167" d="M37 369q6 60 21.5 111t46.5 99t85.5 75.5t128.5 27.5q55 0 114.5 -15t172.5 -59q114 -45 165 -61.5t85 -16.5q120 0 148 142h126q-5 -47 -15 -89t-31 -86t-51 -74.5t-77.5 -50.5t-107.5 -20q-118 0 -299 80q-175 76 -238 76q-120 0 -147 -139h-127z" />
<glyph unicode="&#xa1;" horiz-adv-x="763" d="M233 883q0 62 43.5 103.5t104.5 41.5t104 -41.5t43 -103.5t-43 -105t-104 -43t-104.5 43t-43.5 105zM272 -451l35 1074h150l43 -1074h-228z" />
<glyph unicode="&#xa2;" horiz-adv-x="1126" d="M88 510q0 122 38.5 225.5t105.5 173t157.5 108t192.5 38.5q46 0 108 -15l86 250h133l-104 -297q83 -46 134 -123.5t62 -171.5h-198q-2 27 -9.5 53.5t-24.5 55t-41.5 49.5t-63 35t-86.5 14q-139 0 -214 -111t-75 -282t74.5 -278t216.5 -107q100 0 160 64t77 153h195 q-28 -160 -140.5 -265.5t-293.5 -105.5q-70 0 -136 17l-86 -252h-133l105 299q-114 66 -177 190.5t-63 282.5z" />
<glyph unicode="&#xa3;" horiz-adv-x="1126" d="M102 0v162h172v549h-172v137h177v248q0 168 110.5 275.5t296.5 107.5q188 0 290.5 -107.5t108.5 -279.5h-194q2 105 -52.5 171t-152.5 66q-99 0 -156 -62.5t-57 -162.5v-256h340v-137h-340v-549h586v-162h-957z" />
<glyph unicode="&#xa4;" d="M49 272l125 121q-40 55 -64 127.5t-24 143.5q0 66 25 139.5t63 126.5l-125 123l113 112l123 -127q120 88 268 88t268 -88l123 127l113 -112l-125 -123q38 -53 63 -126.5t25 -139.5q0 -71 -24 -143.5t-64 -127.5l125 -121l-113 -110l-123 123q-116 -86 -268 -86t-268 86 l-123 -123zM248 664q0 -135 85.5 -221.5t219.5 -86.5t219.5 86.5t85.5 221.5q0 132 -86 218.5t-219 86.5t-219 -86.5t-86 -218.5z" />
<glyph unicode="&#xa5;" horiz-adv-x="1126" d="M45 1417h217l301 -678h12l302 678h206l-360 -710h315v-127h-372v-119h372v-127h-372v-334h-203v334h-373v127h373v119h-373v127h313z" />
<glyph unicode="&#xa6;" horiz-adv-x="532" d="M182 322h168v-717h-168v717zM182 700v717h168v-717h-168z" />
<glyph unicode="&#xa7;" d="M123 688q0 144 153 248q-133 120 -133 274q0 147 112 240.5t290 93.5q271 0 407 -250l-155 -82q-75 185 -254 185q-110 0 -168 -54t-58 -131q0 -127 136 -211q167 -103 245 -147q68 -38 112.5 -69t87 -73.5t63 -94.5t20.5 -115q0 -141 -154 -248q134 -124 134 -274 q0 -147 -112 -240.5t-290 -93.5q-271 0 -407 250l155 81q75 -184 254 -184q110 0 167.5 53.5t57.5 130.5q0 127 -135 211q-184 114 -245 148q-68 38 -112.5 69t-87 73.5t-63 94.5t-20.5 115zM295 715q0 -77 43.5 -127.5t148.5 -112.5q74 -43 234 -143v2q37 22 62.5 59.5 t25.5 81.5q0 77 -44 127.5t-149 112.5q-64 37 -233 141q-37 -22 -62.5 -59.5t-25.5 -81.5z" />
<glyph unicode="&#xa8;" horiz-adv-x="839" d="M102 1321q0 56 36 91.5t91 35.5t92 -35.5t37 -91.5t-37 -90.5t-92 -34.5t-91 34.5t-36 90.5zM481 1321q0 56 36 91.5t91 35.5t92 -35.5t37 -91.5t-37 -90.5t-92 -34.5t-91 34.5t-36 90.5z" />
<glyph unicode="&#xa9;" horiz-adv-x="1638" d="M80 739q0 153 57.5 290t156 235.5t235.5 156.5t290 58t290 -58t235.5 -156.5t156.5 -235.5t58 -290t-58 -290t-156.5 -235.5t-235.5 -156t-290 -57.5t-290 57.5t-235.5 156t-156 235.5t-57.5 290zM193 739q0 -131 48.5 -248t132 -201t199.5 -132.5t246 -48.5 q174 0 317.5 82.5t226.5 227.5t83 320t-83 320t-227 228t-317 83t-317 -83t-226.5 -228t-82.5 -320zM420 743q0 66 14.5 129.5t47 123t79 104t116.5 71.5t154 27q136 0 231 -76.5t105 -201.5h-135q-7 73 -56.5 123.5t-146.5 50.5q-129 0 -202.5 -96.5t-73.5 -252.5 q0 -144 72 -241.5t206 -97.5q98 0 154.5 52.5t61.5 125.5h135q-15 -128 -115 -208.5t-236 -80.5q-88 0 -160 29t-117.5 75.5t-76.5 106.5t-44 119.5t-13 117.5z" />
<glyph unicode="&#xaa;" horiz-adv-x="757" d="M90 989q0 92 65.5 149.5t168.5 57.5q81 0 196 -27v72q0 68 -37.5 106.5t-103.5 38.5q-64 0 -102 -35t-35 -81h-136q16 90 89 149.5t182 59.5q115 0 188.5 -59t73.5 -177v-334l4 -104h-127l6 80h-12q-42 -44 -96.5 -71.5t-110.5 -27.5q-98 0 -155.5 56t-57.5 147zM221 995 q0 -52 34.5 -82.5t94.5 -29.5q51 1 95 30t73 64v117q-92 18 -168 18q-64 -1 -96.5 -33t-32.5 -84z" />
<glyph unicode="&#xab;" horiz-adv-x="1069" d="M113 518l274 406h176l-260 -406l262 -409h-178zM514 518l274 406h177l-260 -406l262 -409h-179z" />
<glyph unicode="&#xac;" horiz-adv-x="1167" d="M61 647v160h1045v-580h-158v420h-887z" />
<glyph unicode="&#xad;" horiz-adv-x="716" d="M92 461v155h533v-155h-533z" />
<glyph unicode="&#xae;" horiz-adv-x="1638" d="M80 739q0 153 57.5 290t156 235.5t235.5 156.5t290 58t290 -58t235.5 -156.5t156.5 -235.5t58 -290t-58 -290t-156.5 -235.5t-235.5 -156t-290 -57.5t-290 57.5t-235.5 156t-156 235.5t-57.5 290zM193 739q0 -131 48.5 -248t132 -201t199.5 -132.5t246 -48.5 q174 0 317.5 82.5t226.5 227.5t83 320t-83 320t-227 228t-317 83t-317 -83t-226.5 -228t-82.5 -320zM553 313v873h233q144 0 238 -63t94 -183q0 -95 -71.5 -157t-174.5 -83l336 -387h-159l-312 373h-59v-373h-125zM678 788l106 3q83 2 142 36.5t59 110.5q0 136 -201 141 l-106 2v-293z" />
<glyph unicode="&#xaf;" horiz-adv-x="798" d="M102 1217v145h594v-145h-594z" />
<glyph unicode="&#xb0;" horiz-adv-x="823" d="M92 1102q0 133 93.5 224t226.5 91t226 -91t93 -224q0 -131 -93 -223.5t-226 -92.5q-132 0 -226 92t-94 224zM229 1102q0 -75 54 -128.5t129 -53.5q76 0 129 54t53 128q0 75 -53.5 128.5t-128.5 53.5q-74 0 -128.5 -53t-54.5 -129z" />
<glyph unicode="&#xb1;" horiz-adv-x="1167" d="M61 0v160h1045v-160h-1045zM61 616v160h441v346h164v-346h440v-160h-440v-350h-164v350h-441z" />
<glyph unicode="&#xb2;" horiz-adv-x="686" d="M61 936q-4 51 0 88q11 110 62.5 176.5t140.5 112.5q73 39 137 82q88 64 88 164q0 58 -39.5 99.5t-105.5 41.5q-45 0 -76.5 -17t-47 -44.5t-20.5 -58t-1 -62.5h-125q-11 122 62.5 203t209.5 81q124 0 199.5 -71.5t75.5 -176.5q0 -151 -156 -256q-42 -30 -143 -79 q-30 -15 -51 -28t-46 -35t-37 -52.5t-10 -67.5h430v-100h-547z" />
<glyph unicode="&#xb3;" horiz-adv-x="686" d="M43 1180h135q0 -72 41.5 -114t112.5 -42q64 0 103.5 38t39.5 97q0 82 -56.5 119.5t-142.5 40.5l-53 2v102l56 4q83 5 138.5 40t55.5 108q0 63 -40 96t-97 33q-59 0 -99.5 -32t-41.5 -95h-129q3 53 24 94.5t50 66t65.5 40.5t68 22t60.5 6q128 0 200 -67t72 -160 q0 -61 -38.5 -116t-125.5 -83v-6q87 -26 127.5 -85.5t40.5 -127.5q0 -101 -74.5 -171t-203.5 -70q-121 0 -200.5 71t-88.5 189z" />
<glyph unicode="&#xb4;" horiz-adv-x="675" d="M102 1272l387 248l84 -150l-399 -217z" />
<glyph unicode="&#xb5;" horiz-adv-x="1153" d="M133 -395v1423h197v-657q0 -106 49 -168t145 -62q104 0 186 84t107 217v586h199v-852q0 -102 14 -176h-199q-6 63 -2 178h-12q-9 -16 -24 -36.5t-45 -49.5t-65 -51.5t-86.5 -38.5t-107.5 -16q-98 0 -153 47h-12q3 -38 4 -80t0 -65v-23v-260h-195z" />
<glyph unicode="&#xb6;" horiz-adv-x="1085" d="M-10 1028q0 64 15 125t53 121t95 105t147.5 72.5t203.5 27.5h418v-1874h-156v1730h-213v-1730h-158v956q-92 8 -164 40t-116.5 77.5t-73.5 106t-40 120t-11 123.5z" />
<glyph unicode="&#xb7;" horiz-adv-x="573" d="M139 709q0 62 43.5 104.5t104.5 42.5t104 -42.5t43 -104.5t-43 -104t-104 -42t-104.5 42t-43.5 104z" />
<glyph unicode="&#xb8;" horiz-adv-x="643" d="M102 -395l41 84q63 -35 138 -35q52 0 83 24t31 64q0 34 -25.5 53t-66.5 19q-43 0 -90 -19l-55 45l125 178h118l-116 -133l6 -8q55 19 98 19q67 0 105 -39.5t38 -102.5q0 -80 -65 -136t-182 -56q-102 0 -183 43z" />
<glyph unicode="&#xb9;" horiz-adv-x="686" d="M82 1282v178q45 46 118.5 150t118.5 178h168v-852h-127v727h-8q-34 -61 -124.5 -191t-145.5 -190z" />
<glyph unicode="&#xba;" horiz-adv-x="757" d="M78 1135q0 59 19 117.5t56.5 110.5t101.5 84t144 32q79 0 142 -31.5t100.5 -83t56.5 -110t19 -117.5q0 -88 -36 -167t-110.5 -131.5t-171.5 -52.5q-148 0 -234.5 102t-86.5 247zM207 1135q0 -106 49.5 -174t142.5 -68q77 0 133 61.5t56 182.5q0 110 -55.5 174.5 t-133.5 64.5q-77 0 -134.5 -58t-57.5 -183z" />
<glyph unicode="&#xbb;" horiz-adv-x="1069" d="M102 109l263 409l-261 406h177l274 -406l-274 -409h-179zM504 109l262 409l-260 406h176l274 -406l-274 -409h-178z" />
<glyph unicode="&#xbc;" horiz-adv-x="1710" d="M129 913v179q45 46 119.5 150.5t118.5 176.5h168v-852h-127v727h-9q-34 -61 -124.5 -191t-145.5 -190zM362 0l852 1479h125l-852 -1479h-125zM926 199v133q160 224 348 524h170v-561h110v-98h-110v-197h-129v199h-389zM1030 295h291v442h-8q-62 -99 -132.5 -208 t-110.5 -169l-40 -59v-6z" />
<glyph unicode="&#xbd;" horiz-adv-x="1710" d="M100 913v179q45 46 119.5 150.5t118.5 176.5h168v-852h-127v727h-8q-34 -60 -124.5 -190.5t-146.5 -190.5zM336 0l852 1479h125l-852 -1479h-125zM1004 0q-4 51 0 88q11 111 62.5 178t139.5 113q87 48 137 82q89 65 89 162q0 58 -40 99.5t-106 41.5q-45 0 -76.5 -17 t-47 -44.5t-20.5 -58t-1 -62.5h-125q-11 122 62.5 203t209.5 81q124 0 199.5 -71.5t75.5 -176.5q0 -147 -140 -243q-56 -39 -155 -92q-23 -12 -33 -18t-32 -20.5t-33 -27t-24 -30.5t-18 -40t-4 -47h426v-100h-546z" />
<glyph unicode="&#xbe;" horiz-adv-x="1710" d="M94 811h135q0 -72 41.5 -114t112.5 -42q64 0 103.5 38.5t39.5 97.5q0 43 -16.5 74.5t-45.5 48.5t-62.5 25.5t-73.5 10.5l-54 2v103l56 4q53 3 94 16.5t70.5 47t29.5 83.5q0 63 -40 96t-97 33q-59 0 -99.5 -32t-41.5 -95h-129q3 53 24 94.5t50 66t65.5 41t68 22.5t60.5 6 q128 0 200 -67.5t72 -160.5q0 -61 -38 -115.5t-125 -82.5v-6q87 -26 127.5 -85.5t40.5 -127.5q0 -101 -75 -171.5t-204 -70.5q-121 0 -200.5 71t-88.5 189zM397 0l852 1479h125l-852 -1479h-125zM926 199v133q160 224 348 524h170v-561h110v-98h-110v-197h-129v199h-389z M1030 295h291v442h-8q-62 -99 -132.5 -208t-110.5 -169l-40 -59v-6z" />
<glyph unicode="&#xbf;" horiz-adv-x="1024" d="M92 -80q0 119 60.5 212t177.5 187q72 58 96.5 121.5t19.5 145.5l-2 37h170l2 -41q7 -132 -35 -215t-143 -177q-78 -72 -113.5 -131.5t-35.5 -132.5q0 -109 62 -171t155 -62q103 0 169 69t52 203h193q4 -91 -18.5 -165t-63 -123t-96.5 -83t-115.5 -48.5t-122.5 -14.5 q-174 0 -293 108t-119 281zM379 883q0 62 43 103.5t104 41.5t104.5 -41.5t43.5 -103.5t-43.5 -105t-104.5 -43t-104 43t-43 105z" />
<glyph unicode="&#xc0;" horiz-adv-x="1300" d="M41 0l487 1479h226l506 -1479h-207l-125 375h-561l-119 -375h-207zM346 1747l70 154l401 -209l-61 -121zM418 541h454l-225 704h-12z" />
<glyph unicode="&#xc1;" horiz-adv-x="1300" d="M41 0l487 1479h226l506 -1479h-207l-125 375h-561l-119 -375h-207zM418 541h454l-225 704h-12zM467 1692l401 209l70 -154l-410 -176z" />
<glyph unicode="&#xc2;" horiz-adv-x="1300" d="M41 0l487 1479h226l506 -1479h-207l-125 375h-561l-119 -375h-207zM315 1587l328 326l324 -326h-195l-123 123h-12l-127 -123h-195zM418 541h454l-225 704h-12z" />
<glyph unicode="&#xc3;" horiz-adv-x="1300" d="M41 0l487 1479h226l506 -1479h-207l-125 375h-561l-119 -375h-207zM328 1589q-1 62 14.5 108.5t43 72t59 37.5t65.5 12q42 0 137 -31l31.5 -10.5t31 -10.5t27 -7t29.5 -3q33 0 58.5 19t29.5 59h102q1 -62 -14.5 -108.5t-43 -71.5t-58.5 -37t-66 -12q-45 0 -137 30 l-31.5 10.5t-31 10.5t-27 7t-29.5 3q-33 0 -58.5 -19t-29.5 -59h-102zM418 541h454l-225 704h-12z" />
<glyph unicode="&#xc4;" horiz-adv-x="1300" d="M41 0l487 1479h226l506 -1479h-207l-125 375h-561l-119 -375h-207zM319 1714q0 55 36 90t89 35t90 -35t37 -90q0 -54 -36.5 -88.5t-90.5 -34.5q-53 0 -89 34t-36 89zM418 541h454l-225 704h-12zM711 1714q0 55 36 90t89 35t90 -35t37 -90q0 -54 -36.5 -88.5t-90.5 -34.5 q-53 0 -89 34t-36 89z" />
<glyph unicode="&#xc5;" horiz-adv-x="1300" d="M41 0l487 1479h226l506 -1479h-207l-125 375h-561l-119 -375h-207zM418 541h454l-225 704h-12zM457 1739q0 76 53.5 126t130.5 50t130.5 -50t53.5 -126t-53.5 -127t-130.5 -51t-130.5 51t-53.5 127zM547 1739q0 -38 28 -65t66 -27q37 0 65.5 27t28.5 65t-28.5 65 t-65.5 27q-38 0 -66 -27t-28 -65z" />
<glyph unicode="&#xc6;" horiz-adv-x="1931" d="M41 0l704 1479h1088v-174h-821l88 -461h698v-172h-670l93 -492h628v-180h-792l-68 375h-565l-170 -375h-213zM498 541h463l-127 698h-13z" />
<glyph unicode="&#xc7;" horiz-adv-x="1433" d="M82 731q0 111 26 218.5t82.5 207.5t137 175.5t198 121t256.5 45.5q227 0 382.5 -129.5t174.5 -341.5h-211q-3 56 -25.5 108.5t-63 96t-107 70t-148.5 26.5q-153 0 -266.5 -78.5t-171 -212.5t-57.5 -305q0 -115 31 -217.5t90.5 -183.5t156 -128.5t217.5 -47.5 q165 0 264 91t105 214h209q-16 -143 -97.5 -254.5t-207.5 -171.5t-275 -60h-14l-78 -90l6 -8q55 19 99 19q67 0 105 -39.5t38 -102.5q0 -80 -65.5 -136t-182.5 -56q-101 0 -182 43l41 84q63 -35 137 -35q52 0 83.5 24t31.5 64q0 34 -25.5 53t-66.5 19q-43 0 -91 -19l-55 45 l101 144q-121 18 -220.5 73.5t-165.5 131.5t-111 170t-65 187.5t-20 184.5z" />
<glyph unicode="&#xc8;" horiz-adv-x="1101" d="M143 0v1479h854v-174h-651v-461h623v-172h-621v-492h672v-180h-877zM315 1747l70 154l401 -209l-61 -121z" />
<glyph unicode="&#xc9;" horiz-adv-x="1101" d="M143 0v1479h854v-174h-651v-461h623v-172h-621v-492h672v-180h-877zM387 1692l401 209l70 -154l-409 -176z" />
<glyph unicode="&#xca;" horiz-adv-x="1101" d="M143 0v1479h854v-174h-651v-461h623v-172h-621v-492h672v-180h-877zM248 1587l327 326l324 -326h-194l-123 123h-13l-127 -123h-194z" />
<glyph unicode="&#xcb;" horiz-adv-x="1101" d="M143 0v1479h854v-174h-651v-461h623v-172h-621v-492h672v-180h-877zM262 1714q0 55 36 90t89 35t90 -35t37 -90q0 -54 -36.5 -88.5t-90.5 -34.5q-53 0 -89 34t-36 89zM653 1714q0 55 36 90t89 35t90 -35t37 -90q0 -54 -36.5 -88.5t-90.5 -34.5q-53 0 -89 34t-36 89z" />
<glyph unicode="&#xcc;" horiz-adv-x="491" d="M-61 1747l69 154l402 -209l-62 -121zM143 0v1479h205v-1479h-205z" />
<glyph unicode="&#xcd;" horiz-adv-x="491" d="M82 1692l401 209l70 -154l-410 -176zM143 0v1479h205v-1479h-205z" />
<glyph unicode="&#xce;" horiz-adv-x="491" d="M-80 1587l328 326l323 -326h-194l-123 123h-12l-127 -123h-195zM143 0v1479h205v-1479h-205z" />
<glyph unicode="&#xcf;" horiz-adv-x="491" d="M-76 1714q0 55 36 90t89 35t90 -35t37 -90q0 -54 -36.5 -88.5t-90.5 -34.5q-53 0 -89 34t-36 89zM143 0v1479h205v-1479h-205zM315 1714q0 55 36 90t89 35t90 -35t37 -90q0 -54 -36.5 -88.5t-90.5 -34.5q-53 0 -89 34t-36 89z" />
<glyph unicode="&#xd0;" horiz-adv-x="1394" d="M-6 690v125h149v664h353q170 0 318 -50t259.5 -143.5t175.5 -237.5t64 -321q0 -159 -57 -292.5t-162.5 -230t-263 -150.5t-349.5 -54h-338v690h-149zM348 168l139 2q289 4 451 153.5t162 401.5q0 121 -38.5 225.5t-112 183.5t-187.5 125.5t-256 47.5l-158 2v-494h387 v-125h-387v-522z" />
<glyph unicode="&#xd1;" horiz-adv-x="1536" d="M143 0v1479h203l846 -1160h12v1160h189v-1479h-205l-846 1165h-12v-1165h-187zM473 1589q-1 62 14.5 108.5t43 72t59 37.5t65.5 12q43 0 138 -31l31.5 -10.5t30.5 -10.5t26.5 -7t29.5 -3q33 0 58.5 19t29.5 59h103q1 -62 -14.5 -108.5t-43 -71.5t-58.5 -37t-66 -12 q-46 0 -138 30l-31.5 10.5t-30.5 10.5t-26.5 7t-29.5 3q-33 0 -59 -19t-30 -59h-102z" />
<glyph unicode="&#xd2;" horiz-adv-x="1630" d="M82 750q0 150 52 288.5t144.5 245t232 170.5t302.5 64q164 0 303.5 -62.5t233 -168.5t146 -247.5t52.5 -298.5q0 -178 -60 -326t-161.5 -245.5t-234.5 -151t-281 -53.5t-280.5 56.5t-232 157t-158 249t-58.5 322.5zM295 745q0 -174 62.5 -311t181 -216t272.5 -79 q125 0 225.5 48.5t165 131.5t99 192t34.5 232q0 272 -147 437.5t-377 165.5q-154 0 -273 -82t-181 -218t-62 -301zM518 1747l70 154l401 -209l-61 -121z" />
<glyph unicode="&#xd3;" horiz-adv-x="1630" d="M82 750q0 150 52 288.5t144.5 245t232 170.5t302.5 64q164 0 303.5 -62.5t233 -168.5t146 -247.5t52.5 -298.5q0 -178 -60 -326t-161.5 -245.5t-234.5 -151t-281 -53.5t-280.5 56.5t-232 157t-158 249t-58.5 322.5zM295 745q0 -174 62.5 -311t181 -216t272.5 -79 q125 0 225.5 48.5t165 131.5t99 192t34.5 232q0 272 -147 437.5t-377 165.5q-154 0 -273 -82t-181 -218t-62 -301zM662 1692l401 209l70 -154l-410 -176z" />
<glyph unicode="&#xd4;" horiz-adv-x="1630" d="M82 750q0 150 52 288.5t144.5 245t232 170.5t302.5 64q164 0 303.5 -62.5t233 -168.5t146 -247.5t52.5 -298.5q0 -178 -60 -326t-161.5 -245.5t-234.5 -151t-281 -53.5t-280.5 56.5t-232 157t-158 249t-58.5 322.5zM295 745q0 -174 62.5 -311t181 -216t272.5 -79 q125 0 225.5 48.5t165 131.5t99 192t34.5 232q0 272 -147 437.5t-377 165.5q-154 0 -273 -82t-181 -218t-62 -301zM489 1587l328 326l324 -326h-195l-123 123h-12l-127 -123h-195z" />
<glyph unicode="&#xd5;" horiz-adv-x="1630" d="M82 750q0 150 52 288.5t144.5 245t232 170.5t302.5 64q164 0 303.5 -62.5t233 -168.5t146 -247.5t52.5 -298.5q0 -178 -60 -326t-161.5 -245.5t-234.5 -151t-281 -53.5t-280.5 56.5t-232 157t-158 249t-58.5 322.5zM295 745q0 -174 62.5 -311t181 -216t272.5 -79 q125 0 225.5 48.5t165 131.5t99 192t34.5 232q0 272 -147 437.5t-377 165.5q-154 0 -273 -82t-181 -218t-62 -301zM500 1589q-1 62 14.5 108.5t43 72t59 37.5t65.5 12q42 0 137 -31l31.5 -10.5t31 -10.5t27 -7t29.5 -3q33 0 58.5 19t29.5 59h102q1 -62 -14.5 -108.5 t-43 -71.5t-58.5 -37t-66 -12q-45 0 -137 30l-31.5 10.5t-31 10.5t-27 7t-29.5 3q-33 0 -58.5 -19t-29.5 -59h-102z" />
<glyph unicode="&#xd6;" horiz-adv-x="1630" d="M82 750q0 150 52 288.5t144.5 245t232 170.5t302.5 64q164 0 303.5 -62.5t233 -168.5t146 -247.5t52.5 -298.5q0 -178 -60 -326t-161.5 -245.5t-234.5 -151t-281 -53.5t-280.5 56.5t-232 157t-158 249t-58.5 322.5zM295 745q0 -174 62.5 -311t181 -216t272.5 -79 q125 0 225.5 48.5t165 131.5t99 192t34.5 232q0 272 -147 437.5t-377 165.5q-154 0 -273 -82t-181 -218t-62 -301zM494 1714q0 55 35.5 90t88.5 35t90 -35t37 -90q0 -54 -36.5 -88.5t-90.5 -34.5q-53 0 -88.5 34t-35.5 89zM885 1714q0 55 36 90t89 35t90 -35t37 -90 q0 -54 -36.5 -88.5t-90.5 -34.5q-53 0 -89 34t-36 89z" />
<glyph unicode="&#xd7;" horiz-adv-x="1167" d="M88 123l389 389l-389 391l105 105l389 -392l391 392l104 -105l-391 -391l391 -389l-104 -105l-391 390l-389 -390z" />
<glyph unicode="&#xd8;" horiz-adv-x="1630" d="M82 750q0 150 52 288.5t144.5 245t232 170.5t302.5 64q248 0 434 -140l160 201l92 -74l-164 -205q102 -108 157.5 -252.5t55.5 -306.5q0 -178 -60 -326t-161.5 -245.5t-234.5 -151t-281 -53.5q-245 0 -430 141l-164 -204l-90 73l166 209q-100 104 -155.5 248.5 t-55.5 317.5zM295 745q0 -245 121 -409l714 899q-133 111 -319 111q-154 0 -273 -82t-181 -218t-62 -301zM496 250q130 -111 315 -111q125 0 225.5 48.5t165 131.5t99 192t34.5 232q0 243 -123 404z" />
<glyph unicode="&#xd9;" horiz-adv-x="1378" d="M143 551v928h205v-930q0 -207 91.5 -302t250.5 -95q69 0 124.5 17t91 43t61.5 64.5t39 72.5t20 77.5t8.5 68.5t1.5 56v928h199v-924q0 -158 -43.5 -274.5t-121 -183t-172 -97.5t-208.5 -31q-251 0 -399 147t-148 435zM412 1747l69 154l402 -209l-62 -121z" />
<glyph unicode="&#xda;" horiz-adv-x="1378" d="M143 551v928h205v-930q0 -207 91.5 -302t250.5 -95q69 0 124.5 17t91 43t61.5 64.5t39 72.5t20 77.5t8.5 68.5t1.5 56v928h199v-924q0 -158 -43.5 -274.5t-121 -183t-172 -97.5t-208.5 -31q-251 0 -399 147t-148 435zM555 1692l401 209l70 -154l-410 -176z" />
<glyph unicode="&#xdb;" horiz-adv-x="1378" d="M143 551v928h205v-930q0 -207 91.5 -302t250.5 -95q69 0 124.5 17t91 43t61.5 64.5t39 72.5t20 77.5t8.5 68.5t1.5 56v928h199v-924q0 -158 -43.5 -274.5t-121 -183t-172 -97.5t-208.5 -31q-251 0 -399 147t-148 435zM362 1587l328 326l324 -326h-195l-123 123h-12 l-127 -123h-195z" />
<glyph unicode="&#xdc;" horiz-adv-x="1378" d="M143 551v928h205v-930q0 -207 91.5 -302t250.5 -95q69 0 124.5 17t91 43t61.5 64.5t39 72.5t20 77.5t8.5 68.5t1.5 56v928h199v-924q0 -158 -43.5 -274.5t-121 -183t-172 -97.5t-208.5 -31q-251 0 -399 147t-148 435zM371 1714q0 55 36 90t89 35t90 -35t37 -90 q0 -54 -36.5 -88.5t-90.5 -34.5q-53 0 -89 34t-36 89zM762 1714q0 55 36 90t89 35t90 -35t37 -90q0 -54 -36.5 -88.5t-90.5 -34.5q-53 0 -89 34t-36 89z" />
<glyph unicode="&#xdd;" horiz-adv-x="1202" d="M31 1479h241l334 -750h12l328 750h225l-434 -897q-26 -10 -26 -37v-545h-207v545q0 30 -29 37zM487 1692l402 209l69 -154l-409 -176z" />
<glyph unicode="&#xde;" horiz-adv-x="1142" d="M133 0v1479h205v-248h182q115 0 215.5 -29t178 -84t122.5 -142.5t45 -197.5q0 -116 -47 -206.5t-128.5 -146t-184.5 -84t-221 -28.5h-162v-313h-205zM338 485l162 2q45 0 90 6.5t96.5 26.5t90 51t64 84.5t25.5 122.5q0 66 -24.5 118t-61 82t-85 50t-90 27t-81.5 8l-186 2 v-580z" />
<glyph unicode="&#xdf;" horiz-adv-x="1204" d="M141 0q4 74 4 160v946q0 102 35 180t95 123t133 67.5t157 22.5q170 0 283 -87.5t113 -233.5q0 -139 -117 -246q-37 -36 -52.5 -59t-15.5 -50q0 -72 135 -174q46 -35 79 -66t69 -75.5t55 -97.5t19 -111q0 -151 -101.5 -238.5t-265.5 -87.5q-149 0 -249.5 84t-110.5 228 h200q6 -72 52 -117t118 -45t118 45t46 121q0 114 -143 223q-44 34 -76.5 64t-66.5 69.5t-52 82.5t-18 87q0 28 8.5 55.5t16.5 44t30 44t29 34.5t34 35q62 66 62 143q0 82 -57.5 129.5t-145.5 47.5q-103 0 -165 -62.5t-62 -171.5v-1114h-193z" />
<glyph unicode="&#xe0;" horiz-adv-x="1071" d="M92 287q0 142 99.5 234t261.5 95q153 2 311 -45v111q0 110 -58.5 169.5t-168.5 59.5q-106 0 -164.5 -53t-53.5 -129h-206q31 144 141 236t283 92q119 0 208.5 -39t144 -125t54.5 -211v-512q0 -115 12 -170h-194q8 84 8 131h-10q-67 -72 -157.5 -115t-188.5 -43 q-149 0 -235.5 88t-86.5 226zM238 1370l84 150l387 -248l-72 -119zM281 297q0 -84 50.5 -130t147.5 -46q81 0 158.5 48t122.5 103v183q-153 31 -268 28q-98 -1 -154.5 -52t-56.5 -134z" />
<glyph unicode="&#xe1;" horiz-adv-x="1071" d="M92 287q0 -138 86.5 -226t235.5 -88q98 0 188.5 43t157.5 115h10l-8 -131h194q-12 55 -12 170v512q0 125 -54.5 211t-144 125t-208.5 39q-173 0 -283 -92t-141 -236h206q-5 76 53.5 129t164.5 53q110 0 168.5 -59.5t58.5 -169.5v-111q-158 47 -311 45q-162 -3 -261.5 -95 t-99.5 -234zM281 297q0 83 56.5 134t154.5 52q115 3 268 -28v-183q-45 -55 -122.5 -103t-158.5 -48q-97 0 -147.5 46t-50.5 130zM397 1272l387 248l84 -150l-399 -217z" />
<glyph unicode="&#xe2;" horiz-adv-x="1071" d="M92 287q0 142 99.5 234t261.5 95q153 2 311 -45v111q0 110 -58.5 169.5t-168.5 59.5q-106 0 -164.5 -53t-53.5 -129h-206q31 144 141 236t283 92q119 0 208.5 -39t144 -125t54.5 -211v-512q0 -115 12 -170h-194q8 84 8 131h-10q-67 -72 -157.5 -115t-188.5 -43 q-149 0 -235.5 88t-86.5 226zM252 1161l319 350l316 -350h-178l-131 133h-13l-135 -133h-178zM281 297q0 -84 50.5 -130t147.5 -46q81 0 158.5 48t122.5 103v183q-153 31 -268 28q-98 -1 -154.5 -52t-56.5 -134z" />
<glyph unicode="&#xe3;" horiz-adv-x="1071" d="M92 287q0 -138 86.5 -226t235.5 -88q98 0 188.5 43t157.5 115h10l-8 -131h194q-12 55 -12 170v512q0 125 -54.5 211t-144 125t-208.5 39q-173 0 -283 -92t-141 -236h206q-5 76 53.5 129t164.5 53q110 0 168.5 -59.5t58.5 -169.5v-111q-158 47 -311 45q-162 -3 -261.5 -95 t-99.5 -234zM250 1196q-1 62 15 109.5t43.5 74t59.5 39.5t66 13q53 0 148 -31q100 -31 129 -31q33 0 58.5 20t29.5 60h104q1 -62 -15 -109.5t-43.5 -74t-59.5 -39.5t-66 -13q-53 0 -148 31q-100 31 -129 31q-33 0 -58.5 -20t-29.5 -60h-104zM281 297q0 83 56.5 134t154.5 52 q115 3 268 -28v-183q-45 -55 -122.5 -103t-158.5 -48q-97 0 -147.5 46t-50.5 130z" />
<glyph unicode="&#xe4;" horiz-adv-x="1071" d="M92 287q0 -138 86.5 -226t235.5 -88q98 0 188.5 43t157.5 115h10l-8 -131h194q-12 55 -12 170v512q0 125 -54.5 211t-144 125t-208.5 39q-173 0 -283 -92t-141 -236h206q-5 76 53.5 129t164.5 53q110 0 168.5 -59.5t58.5 -169.5v-111q-158 47 -311 45q-162 -3 -261.5 -95 t-99.5 -234zM225 1321q0 56 36 91.5t91 35.5t92 -35.5t37 -91.5t-37 -90.5t-92 -34.5t-91 34.5t-36 90.5zM281 297q0 83 56.5 134t154.5 52q115 3 268 -28v-183q-45 -55 -122.5 -103t-158.5 -48q-97 0 -147.5 46t-50.5 130zM604 1321q0 56 36 91.5t91 35.5t92 -35.5 t37 -91.5t-37 -90.5t-92 -34.5t-91 34.5t-36 90.5z" />
<glyph unicode="&#xe5;" horiz-adv-x="1071" d="M92 287q0 -138 86.5 -226t235.5 -88q98 0 188.5 43t157.5 115h10l-8 -131h194q-12 55 -12 170v512q0 125 -54.5 211t-144 125t-208.5 39q-173 0 -283 -92t-141 -236h206q-5 76 53.5 129t164.5 53q110 0 168.5 -59.5t58.5 -169.5v-111q-158 47 -311 45q-162 -3 -261.5 -95 t-99.5 -234zM281 297q0 83 56.5 134t154.5 52q115 3 268 -28v-183q-45 -55 -122.5 -103t-158.5 -48q-97 0 -147.5 46t-50.5 130zM369 1335q0 79 56 132t136 53t136.5 -53t56.5 -132t-56.5 -132.5t-136.5 -53.5t-136 53.5t-56 132.5zM459 1335q0 -43 30.5 -71.5t71.5 -28.5 t72 28.5t31 71.5t-31 72t-72 29t-71.5 -29t-30.5 -72z" />
<glyph unicode="&#xe6;" horiz-adv-x="1751" d="M82 295q0 141 106 233.5t265 92.5q144 0 299 -41v98q0 110 -61 172.5t-167 62.5q-105 0 -162.5 -54t-52.5 -130h-209q28 144 135 236t279 92q230 0 348 -160h12q70 74 150 116t193 42q106 0 190 -36t135 -94t82.5 -133.5t40 -152t0.5 -152.5h-729q2 -166 80.5 -267 t218.5 -101q94 0 159.5 56t84.5 142h188q-10 -65 -42.5 -125.5t-85 -111t-131.5 -81t-173 -30.5q-264 0 -393 215h-13q-67 -97 -174.5 -156t-234.5 -59q-156 0 -247 90.5t-91 235.5zM270 299q0 -87 49.5 -132.5t145.5 -45.5q55 0 106.5 17.5t90.5 45.5t65.5 54t46.5 53 q-16 75 -20 168q-160 28 -269 28q-98 0 -156.5 -53.5t-58.5 -134.5zM942 629h531q1 37 -6 74t-26 76t-47.5 68.5t-76 48.5t-107.5 19q-102 0 -178.5 -72t-89.5 -214z" />
<glyph unicode="&#xe7;" horiz-adv-x="1067" d="M82 510q0 245 140.5 395t350.5 150q166 0 286.5 -102.5t135.5 -254.5h-198q-2 31 -17 65t-41 66.5t-70.5 54t-99.5 21.5q-93 0 -158.5 -54t-95.5 -140.5t-30 -198.5q0 -108 32 -194t98 -138.5t156 -52.5q69 0 122 34t80.5 81t37.5 102h195q-28 -155 -134.5 -259.5 t-277.5 -111.5l-78 -88l6 -8q55 19 99 19q67 0 105 -39.5t38 -102.5q0 -80 -65.5 -136t-182.5 -56q-101 0 -182 43l41 84q63 -35 137 -35q52 0 83.5 24t31.5 64q0 34 -25.5 53t-66.5 19q-43 0 -91 -19l-55 45l98 142q-185 29 -295 174.5t-110 353.5z" />
<glyph unicode="&#xe8;" horiz-adv-x="1091" d="M82 522q0 145 56 265.5t164.5 194t248.5 73.5q109 0 194.5 -36t137 -94t83 -133.5t40 -152t0.5 -152.5h-734q2 -165 80 -266.5t221 -101.5q94 0 160.5 54.5t85.5 143.5h189q-9 -65 -42.5 -126t-87.5 -111.5t-136 -80.5t-179 -30q-217 0 -349 151.5t-132 401.5zM268 1370 l84 150l387 -248l-71 -119zM281 627l534 4q1 32 -5.5 67.5t-25 75t-46.5 70t-75.5 51t-107.5 20.5q-107 0 -184 -76t-90 -212z" />
<glyph unicode="&#xe9;" horiz-adv-x="1091" d="M82 522q0 145 56 265.5t164.5 194t248.5 73.5q109 0 194.5 -36t137 -94t83 -133.5t40 -152t0.5 -152.5h-734q2 -165 80 -266.5t221 -101.5q94 0 160.5 54.5t85.5 143.5h189q-9 -65 -42.5 -126t-87.5 -111.5t-136 -80.5t-179 -30q-217 0 -349 151.5t-132 401.5zM281 627 l534 4q1 32 -5.5 67.5t-25 75t-46.5 70t-75.5 51t-107.5 20.5q-107 0 -184 -76t-90 -212zM395 1272l387 248l84 -150l-399 -217z" />
<glyph unicode="&#xea;" horiz-adv-x="1091" d="M82 522q0 145 56 265.5t164.5 194t248.5 73.5q109 0 194.5 -36t137 -94t83 -133.5t40 -152t0.5 -152.5h-734q2 -165 80 -266.5t221 -101.5q94 0 160.5 54.5t85.5 143.5h189q-9 -65 -42.5 -126t-87.5 -111.5t-136 -80.5t-179 -30q-217 0 -349 151.5t-132 401.5zM248 1161 l319 350l316 -350h-178l-132 133h-12l-135 -133h-178zM281 627l534 4q1 32 -5.5 67.5t-25 75t-46.5 70t-75.5 51t-107.5 20.5q-107 0 -184 -76t-90 -212z" />
<glyph unicode="&#xeb;" horiz-adv-x="1091" d="M82 522q0 145 56 265.5t164.5 194t248.5 73.5q109 0 194.5 -36t137 -94t83 -133.5t40 -152t0.5 -152.5h-734q2 -165 80 -266.5t221 -101.5q94 0 160.5 54.5t85.5 143.5h189q-9 -65 -42.5 -126t-87.5 -111.5t-136 -80.5t-179 -30q-217 0 -349 151.5t-132 401.5zM248 1321 q0 56 36 91.5t91 35.5t92 -35.5t37 -91.5t-37 -90.5t-92 -34.5t-91 34.5t-36 90.5zM281 627l534 4q1 32 -5.5 67.5t-25 75t-46.5 70t-75.5 51t-107.5 20.5q-107 0 -184 -76t-90 -212zM627 1321q0 56 36 91.5t91 35.5t92 -35.5t37 -91.5t-37 -90.5t-92 -34.5t-91 34.5 t-36 90.5z" />
<glyph unicode="&#xec;" horiz-adv-x="458" d="M-74 1370l84 150l387 -248l-71 -119zM133 0v1028h193v-1028h-193z" />
<glyph unicode="&#xed;" horiz-adv-x="458" d="M63 1272l388 248l84 -150l-400 -217zM133 0v1028h193v-1028h-193z" />
<glyph unicode="&#xee;" horiz-adv-x="458" d="M-88 1161l319 350l316 -350h-178l-131 133h-13l-135 -133h-178zM133 0v1028h193v-1028h-193z" />
<glyph unicode="&#xef;" horiz-adv-x="458" d="M-88 1321q0 56 36 91.5t91 35.5t92 -35.5t37 -91.5t-37 -90.5t-92 -34.5t-91 34.5t-36 90.5zM133 0v1028h193v-1028h-193zM291 1321q0 56 36 91.5t91 35.5t92 -35.5t37 -91.5t-37 -90.5t-92 -34.5t-91 34.5t-36 90.5z" />
<glyph unicode="&#xf0;" horiz-adv-x="1198" d="M88 504q0 97 32.5 190.5t91.5 169.5t152 123t205 47q106 0 194.5 -51t143.5 -129h13q-13 79 -41 146.5t-70.5 120.5t-82 90.5t-93.5 78.5l-221 -131l-80 82l198 117q-149 76 -319 92l184 121q153 -46 285 -125l192 117l80 -84l-170 -101q144 -120 231 -317.5t87 -482.5 q0 -120 -32 -228.5t-92.5 -195t-159 -138t-220.5 -51.5q-115 0 -211.5 43.5t-161 117.5t-100 172t-35.5 206zM285 506q0 -109 32.5 -196.5t105 -143t175.5 -55.5q127 0 216 100t89 297q0 176 -91 278.5t-220 102.5q-42 0 -82 -10.5t-81.5 -38t-72.5 -69.5t-51 -110t-20 -155 z" />
<glyph unicode="&#xf1;" horiz-adv-x="1128" d="M123 1028h199v-176h12q14 24 37.5 51.5t64.5 63.5t102 59t128 23q41 0 83 -9t89.5 -35t83.5 -66.5t60 -110t24 -158.5v-670h-197v674q0 107 -46.5 166t-133.5 59q-104 0 -187 -85.5t-114 -215.5v-598h-195v852q0 102 -10 176zM283 1196q-1 62 15 109.5t43.5 74t59.5 39.5 t66 13q52 0 147 -31q100 -31 129 -31q33 0 58.5 20t29.5 60h105q1 -62 -15 -109.5t-43.5 -74t-59.5 -39.5t-66 -13q-53 0 -148 31q-100 31 -129 31q-33 0 -58.5 -20t-29.5 -60h-104z" />
<glyph unicode="&#xf2;" horiz-adv-x="1183" d="M82 514q0 73 19 147.5t60.5 145.5t100 126t145.5 88.5t189 33.5q101 0 187 -34.5t143.5 -90t98 -127.5t59 -145.5t18.5 -145.5q0 -104 -33.5 -200.5t-95.5 -174.5t-160 -125t-217 -47t-217.5 45t-162.5 121t-99 175t-35 208zM283 514q0 -81 19 -152t55.5 -128t97.5 -90 t139 -33q61 0 115 24.5t97.5 72t69 127t25.5 181.5q0 187 -88 290t-219 103q-43 0 -84 -11t-83 -39.5t-73 -71.5t-51 -113.5t-20 -159.5zM295 1370l84 150l387 -248l-72 -119z" />
<glyph unicode="&#xf3;" horiz-adv-x="1183" d="M82 514q0 73 19 147.5t60.5 145.5t100 126t145.5 88.5t189 33.5q101 0 187 -34.5t143.5 -90t98 -127.5t59 -145.5t18.5 -145.5q0 -104 -33.5 -200.5t-95.5 -174.5t-160 -125t-217 -47t-217.5 45t-162.5 121t-99 175t-35 208zM283 514q0 -81 19 -152t55.5 -128t97.5 -90 t139 -33q61 0 115 24.5t97.5 72t69 127t25.5 181.5q0 187 -88 290t-219 103q-43 0 -84 -11t-83 -39.5t-73 -71.5t-51 -113.5t-20 -159.5zM459 1272l387 248l84 -150l-400 -217z" />
<glyph unicode="&#xf4;" horiz-adv-x="1183" d="M82 514q0 73 19 147.5t60.5 145.5t100 126t145.5 88.5t189 33.5q101 0 187 -34.5t143.5 -90t98 -127.5t59 -145.5t18.5 -145.5q0 -104 -33.5 -200.5t-95.5 -174.5t-160 -125t-217 -47t-217.5 45t-162.5 121t-99 175t-35 208zM274 1161l320 350l315 -350h-178l-131 133 h-12l-135 -133h-179zM283 514q0 -81 19 -152t55.5 -128t97.5 -90t139 -33q61 0 115 24.5t97.5 72t69 127t25.5 181.5q0 187 -88 290t-219 103q-43 0 -84 -11t-83 -39.5t-73 -71.5t-51 -113.5t-20 -159.5z" />
<glyph unicode="&#xf5;" horiz-adv-x="1183" d="M82 514q0 73 19 147.5t60.5 145.5t100 126t145.5 88.5t189 33.5q101 0 187 -34.5t143.5 -90t98 -127.5t59 -145.5t18.5 -145.5q0 -104 -33.5 -200.5t-95.5 -174.5t-160 -125t-217 -47t-217.5 45t-162.5 121t-99 175t-35 208zM264 1196q-1 62 15 109.5t44 74t60 39.5 t66 13q52 0 147 -31q100 -31 129 -31q33 0 58.5 20t29.5 60h105q1 -62 -15 -109.5t-44 -74t-60 -39.5t-66 -13q-52 0 -147 31q-100 31 -129 31q-33 0 -58.5 -20t-29.5 -60h-105zM283 514q0 -81 19 -152t55.5 -128t97.5 -90t139 -33q61 0 115 24.5t97.5 72t69 127t25.5 181.5 q0 187 -88 290t-219 103q-43 0 -84 -11t-83 -39.5t-73 -71.5t-51 -113.5t-20 -159.5z" />
<glyph unicode="&#xf6;" horiz-adv-x="1183" d="M82 514q0 73 19 147.5t60.5 145.5t100 126t145.5 88.5t189 33.5q101 0 187 -34.5t143.5 -90t98 -127.5t59 -145.5t18.5 -145.5q0 -104 -33.5 -200.5t-95.5 -174.5t-160 -125t-217 -47t-217.5 45t-162.5 121t-99 175t-35 208zM274 1321q0 56 36 91.5t91 35.5t92 -35.5 t37 -91.5t-37 -90.5t-92 -34.5t-91 34.5t-36 90.5zM283 514q0 -81 19 -152t55.5 -128t97.5 -90t139 -33q61 0 115 24.5t97.5 72t69 127t25.5 181.5q0 187 -88 290t-219 103q-43 0 -84 -11t-83 -39.5t-73 -71.5t-51 -113.5t-20 -159.5zM653 1321q0 56 36 91.5t91 35.5 t92 -35.5t37 -91.5t-37 -90.5t-92 -34.5t-91 34.5t-36 90.5z" />
<glyph unicode="&#xf7;" horiz-adv-x="1167" d="M61 434v160h1045v-160h-1045zM449 152q0 60 38.5 98.5t96.5 38.5t97.5 -39t39.5 -98t-39.5 -97.5t-97.5 -38.5t-96.5 38.5t-38.5 97.5zM449 874q0 60 39 99t96 39q58 0 97.5 -39.5t39.5 -98.5t-39.5 -97t-97.5 -38t-96.5 38t-38.5 97z" />
<glyph unicode="&#xf8;" horiz-adv-x="1183" d="M82 514q0 73 19 147.5t60.5 145.5t100 126t145.5 88.5t189 33.5q149 0 268 -78l140 186l88 -67l-142 -191q75 -80 113.5 -185.5t38.5 -207.5q0 -104 -33.5 -200.5t-95.5 -174.5t-160 -125t-217 -47q-160 0 -285 82l-137 -186l-86 67l141 191q-72 76 -109.5 178t-37.5 217 zM283 514q0 -151 55 -250l432 584q-76 61 -176 61q-43 0 -84 -11t-83 -39.5t-73 -71.5t-51 -113.5t-20 -159.5zM408 176q75 -65 186 -65q61 0 115 24.5t97.5 72t69 127t25.5 181.5q0 143 -57 246z" />
<glyph unicode="&#xf9;" horiz-adv-x="1153" d="M133 373v655h197v-657q0 -106 49 -168t145 -62q104 0 186 84t107 217v586h199v-852q0 -102 14 -176h-199q-6 63 -2 178h-12q-12 -23 -34 -49.5t-62.5 -61.5t-103 -58t-134.5 -23q-45 0 -89.5 10t-92.5 37t-84.5 69t-60 112t-23.5 159zM279 1370l83 150l388 -248l-72 -119 z" />
<glyph unicode="&#xfa;" horiz-adv-x="1153" d="M133 373v655h197v-657q0 -106 49 -168t145 -62q104 0 186 84t107 217v586h199v-852q0 -102 14 -176h-199q-6 63 -2 178h-12q-12 -23 -34 -49.5t-62.5 -61.5t-103 -58t-134.5 -23q-45 0 -89.5 10t-92.5 37t-84.5 69t-60 112t-23.5 159zM422 1272l387 248l84 -150 l-399 -217z" />
<glyph unicode="&#xfb;" horiz-adv-x="1153" d="M133 373v655h197v-657q0 -106 49 -168t145 -62q104 0 186 84t107 217v586h199v-852q0 -102 14 -176h-199q-6 63 -2 178h-12q-12 -23 -34 -49.5t-62.5 -61.5t-103 -58t-134.5 -23q-45 0 -89.5 10t-92.5 37t-84.5 69t-60 112t-23.5 159zM258 1161l320 350l315 -350h-178 l-131 133h-13l-135 -133h-178z" />
<glyph unicode="&#xfc;" horiz-adv-x="1153" d="M133 373v655h197v-657q0 -106 49 -168t145 -62q104 0 186 84t107 217v586h199v-852q0 -102 14 -176h-199q-6 63 -2 178h-12q-12 -23 -34 -49.5t-62.5 -61.5t-103 -58t-134.5 -23q-45 0 -89.5 10t-92.5 37t-84.5 69t-60 112t-23.5 159zM258 1321q0 56 36 91.5t91 35.5 t92 -35.5t37 -91.5t-37 -90.5t-92 -34.5t-91 34.5t-36 90.5zM637 1321q0 56 36 91.5t91 35.5t92 -35.5t37 -91.5t-37 -90.5t-92 -34.5t-91 34.5t-36 90.5z" />
<glyph unicode="&#xfd;" horiz-adv-x="1044" d="M41 1028h213l287 -815h12l250 815h201q-353 -1066 -416 -1233q-43 -114 -116.5 -161.5t-174.5 -47.5q-74 0 -135 21v164q55 -19 110 -19q51 0 82.5 19.5t53.5 64.5q44 95 61 164q7 33 -10 52.5t-49 17.5zM430 1272l387 248l84 -150l-399 -217z" />
<glyph unicode="&#xfe;" horiz-adv-x="1148" d="M133 -395v1874h191v-451l-2 -154h12q121 173 295 173q137 0 238.5 -75.5t150.5 -195.5t49 -266q0 -150 -50 -271t-148.5 -193.5t-229.5 -72.5q-64 0 -119 18.5t-92 49t-57 52.5t-35 46h-12q2 -71 2 -139v-395h-193zM326 393q2 -59 34 -120.5t95 -106.5t139 -45 q90 0 153 54t91 140t28 195q0 179 -71.5 283t-208.5 104q-100 0 -176.5 -84t-83.5 -172v-248z" />
<glyph unicode="&#xff;" horiz-adv-x="1044" d="M41 1028h213l287 -815h12l250 815h201q-353 -1066 -416 -1233q-43 -114 -116.5 -161.5t-174.5 -47.5q-74 0 -135 21v164q55 -19 110 -19q51 0 82.5 19.5t53.5 64.5q44 95 61 164q7 33 -10 52.5t-49 17.5zM213 1321q0 56 36 91.5t91 35.5t92 -35.5t37 -91.5t-37 -90.5 t-92 -34.5t-91 34.5t-36 90.5zM592 1321q0 56 36 91.5t91 35.5t92 -35.5t37 -91.5t-37 -90.5t-92 -34.5t-91 34.5t-36 90.5z" />
<glyph unicode="&#x152;" horiz-adv-x="2011" d="M82 729q0 178 59.5 328t160 250t233.5 155.5t280 55.5q123 0 238 -39h854v-174h-652v-461h623v-172h-621v-492h672v-180h-876q-110 -35 -238 -35q-163 0 -302 61.5t-232.5 166t-146 243.5t-52.5 293zM293 741q0 -271 148.5 -435.5t379.5 -164.5q129 0 232 56v1093 q-109 56 -232 56q-124 0 -226 -50t-167 -134.5t-100 -193t-35 -227.5z" />
<glyph unicode="&#x153;" horiz-adv-x="1914" d="M82 514q0 73 19 147.5t60 145.5t99.5 126t145 88.5t188.5 33.5q133 0 232.5 -61t164.5 -163h13q61 103 155.5 163.5t212.5 60.5q109 0 194.5 -36t137.5 -94t84 -133.5t40.5 -152t0.5 -152.5h-733q2 -166 82.5 -267t220.5 -101q94 0 159 55.5t84 142.5h189 q-10 -65 -42.5 -125.5t-85 -111t-131.5 -81t-173 -30.5q-129 0 -229 62t-164 170h-15q-67 -106 -168 -171t-231 -65q-119 0 -217 45t-161 121.5t-97.5 175t-34.5 207.5zM283 514q0 -110 31 -198t103.5 -145.5t178.5 -57.5q59 0 113 24t99 71.5t72 127t27 180.5 q0 179 -90 286t-221 107q-43 0 -84.5 -11t-84 -39.5t-73.5 -71.5t-51 -113.5t-20 -159.5zM1106 629h530q1 48 -11.5 94t-40 91t-82 73t-128.5 28q-102 0 -178.5 -72t-89.5 -214z" />
<glyph unicode="&#x178;" horiz-adv-x="1202" d="M31 1479h241l334 -750h12l328 750h225l-434 -897q-26 -10 -26 -37v-545h-207v545q0 30 -29 37zM291 1714q0 55 36 90t89 35t90 -35t37 -90q0 -54 -36.5 -88.5t-90.5 -34.5q-53 0 -89 34t-36 89zM682 1714q0 55 36 90t89 35t90 -35t37 -90q0 -54 -36.5 -88.5t-90.5 -34.5 q-53 0 -89 34t-36 89z" />
<glyph unicode="&#x2c6;" horiz-adv-x="839" d="M102 1161l320 350l315 -350h-178l-131 133h-12l-135 -133h-179z" />
<glyph unicode="&#x2dc;" horiz-adv-x="862" d="M104 1196q-1 62 15 109.5t44 74t60 39.5t66 13q52 0 147 -31q100 -31 129 -31q33 0 58.5 20t29.5 60h105q1 -62 -15 -109.5t-44 -74t-60 -39.5t-66 -13q-52 0 -147 31q-100 31 -129 31q-33 0 -58.5 -20t-29.5 -60h-105z" />
<glyph unicode="&#x2000;" horiz-adv-x="957" />
<glyph unicode="&#x2001;" horiz-adv-x="1915" />
<glyph unicode="&#x2002;" horiz-adv-x="957" />
<glyph unicode="&#x2003;" horiz-adv-x="1915" />
<glyph unicode="&#x2004;" horiz-adv-x="638" />
<glyph unicode="&#x2005;" horiz-adv-x="478" />
<glyph unicode="&#x2006;" horiz-adv-x="319" />
<glyph unicode="&#x2007;" horiz-adv-x="319" />
<glyph unicode="&#x2008;" horiz-adv-x="239" />
<glyph unicode="&#x2009;" horiz-adv-x="383" />
<glyph unicode="&#x200a;" horiz-adv-x="106" />
<glyph unicode="&#x2010;" horiz-adv-x="716" d="M92 461v155h533v-155h-533z" />
<glyph unicode="&#x2011;" horiz-adv-x="716" d="M92 461v155h533v-155h-533z" />
<glyph unicode="&#x2012;" horiz-adv-x="716" d="M92 461v155h533v-155h-533z" />
<glyph unicode="&#x2013;" horiz-adv-x="1024" d="M0 455v166h1024v-166h-1024z" />
<glyph unicode="&#x2014;" horiz-adv-x="2048" d="M61 455v166h1926v-166h-1926z" />
<glyph unicode="&#x2018;" horiz-adv-x="563" d="M145 1114q-3 47 9 94q38 145 161 271h146q-121 -94 -180 -197q-7 -9 -2 -19t18 -10q59 0 99 -39t40 -100q0 -59 -42 -98t-103 -39q-59 0 -101 37t-45 100z" />
<glyph unicode="&#x2019;" horiz-adv-x="563" d="M102 977q123 96 181 197q6 9 1 18.5t-18 9.5q-59 0 -99 39t-40 100q0 59 42 98.5t103 39.5q59 0 101 -37.5t45 -100.5q3 -50 -8 -94q-37 -142 -162 -270h-146z" />
<glyph unicode="&#x201a;" horiz-adv-x="563" d="M102 -197q123 96 181 197q6 9 1 19t-18 10q-59 0 -99 39t-40 100q0 59 42 98t103 39q59 0 101 -37t45 -100q3 -50 -8 -94q-17 -67 -60 -138.5t-102 -132.5h-146z" />
<glyph unicode="&#x201c;" horiz-adv-x="942" d="M145 1114q-3 47 9 94q17 63 69 138t117 133h147q-151 -114 -200 -197q-7 -9 -2 -19t18 -10q55 0 94 -39.5t39 -99.5q0 -59 -42 -98t-103 -39q-59 0 -100.5 37t-45.5 100zM524 1114q-3 50 8 94q17 67 60 138.5t102 132.5h146q-123 -96 -181 -197q-6 -9 -1 -19t18 -10 q59 0 99 -39t40 -100q0 -59 -42 -98t-103 -39q-59 0 -101 37t-45 100z" />
<glyph unicode="&#x201d;" horiz-adv-x="942" d="M102 977q123 96 181 197q6 9 1 18.5t-18 9.5q-59 0 -99 39t-40 100q0 59 42 98.5t103 39.5q59 0 101 -37.5t45 -100.5q3 -50 -8 -94q-37 -142 -162 -270h-146zM455 977q151 114 200 197q7 9 2 18.5t-18 9.5q-55 0 -94 39.5t-39 99.5q0 59 42 98.5t103 39.5 q59 0 100.5 -37.5t45.5 -100.5q3 -47 -9 -94q-17 -63 -69 -137.5t-117 -132.5h-147z" />
<glyph unicode="&#x201e;" horiz-adv-x="942" d="M102 -197q123 96 181 197q6 9 1 19t-18 10q-59 0 -99 39t-40 100q0 59 42 98t103 39q59 0 101 -37t45 -100q3 -50 -8 -94q-17 -67 -60 -138.5t-102 -132.5h-146zM455 -197q151 114 200 197q7 9 2 19t-18 10q-55 0 -94 39.5t-39 99.5q0 59 42 98t103 39q59 0 100.5 -37 t45.5 -100q3 -47 -9 -94q-17 -63 -69 -138t-117 -133h-147z" />
<glyph unicode="&#x2022;" horiz-adv-x="964" d="M123 739q0 150 106 255.5t254 105.5t253.5 -106t105.5 -255q0 -148 -105 -253t-254 -105t-254.5 105t-105.5 253z" />
<glyph unicode="&#x2026;" horiz-adv-x="2048" d="M205 145q0 62 43 105t104 43t104.5 -43t43.5 -105t-43.5 -103.5t-104.5 -41.5t-104 41.5t-43 103.5zM877 145q0 62 43 105t104 43t104 -43t43 -105t-43 -103.5t-104 -41.5t-104 41.5t-43 103.5zM1548 145q0 62 43.5 105t104.5 43t104 -43t43 -105t-43 -103.5t-104 -41.5 t-104.5 41.5t-43.5 103.5z" />
<glyph unicode="&#x202f;" horiz-adv-x="383" />
<glyph unicode="&#x2039;" horiz-adv-x="686" d="M113 518l282 406h187l-265 -406l267 -409h-189z" />
<glyph unicode="&#x203a;" horiz-adv-x="686" d="M102 109l267 409l-265 406h187l282 -406l-282 -409h-189z" />
<glyph unicode="&#x205f;" horiz-adv-x="478" />
<glyph unicode="&#x20ac;" horiz-adv-x="1126" d="M41 524v127h129q-2 31 -2 62l2 57h-129v127h141q16 110 53.5 206t98 175t151 124.5t201.5 45.5q176 0 292.5 -111t125.5 -309h-189q-2 69 -20 120.5t-42.5 78.5t-58 43t-59 20t-53.5 4q-250 0 -305 -397h418v-127h-430q-3 -24 -3 -59l3 -60h364v-127h-350 q10 -79 31.5 -145.5t57 -123t91 -88.5t125.5 -32q27 0 51.5 3.5t58 19t58 41t43 75.5t20.5 117h191q-7 -194 -128 -305t-298 -111q-89 0 -165 30t-130.5 81.5t-96.5 122.5t-67.5 149t-38.5 166h-141z" />
<glyph unicode="&#x2122;" horiz-adv-x="1638" d="M51 1368v111h545v-111h-213v-629h-117v629h-215zM633 739h117l47 588h12l207 -610h94l209 610h12l47 -588h117l-68 740h-167l-191 -576h-12l-189 576h-168z" />
<glyph unicode="&#x25fc;" horiz-adv-x="1024" d="M0 0v1024h1024v-1024h-1024z" />
</font>
</defs>
</svg>
